<svg xmlns="http://www.w3.org/2000/svg" viewBox="0 0 422.03 84.2"><defs><style>.cls-1{fill:#231815;}</style></defs><g id="圖層_2" data-name="圖層 2"><g id="圖層_1-2" data-name="圖層 1"><path class="cls-1" d="M330.66,7H327l-.22-.6h4.32v-4c-1.13.14-2.4.27-3.82.38l-.21-.55A33.44,33.44,0,0,0,334.37.48c.89.52,1.33.93,1.33,1.23,0,.14-.11.21-.32.21a2,2,0,0,1-.67-.14c-1,.22-1.85.37-2.38.46V6.43H333a21.62,21.62,0,0,0,1.39-3.79c1.14.39,1.7.72,1.7,1s-.28.29-.83.34a20,20,0,0,1-1.58,2.47h1.19l.82-1.22a8.53,8.53,0,0,1,1.13,1.36l-.25.46h-4.22V8a9,9,0,0,1,2.85,1c.65.4,1,.81,1,1.21s-.22.77-.66.77a1,1,0,0,1-.78-.55,6.19,6.19,0,0,0-2.38-1.85V12h-1.24V8.5a16.66,16.66,0,0,1-4.22,3.5l-.36-.46A16.3,16.3,0,0,0,330.66,7Zm-1.36-.76a.57.57,0,0,1-.61-.57,4,4,0,0,0-1.08-2.34L328,3c1.38.78,2.07,1.59,2.07,2.44C330,6,329.79,6.27,329.3,6.27Zm5,13.85h-5.18v1.36h-1.3V12.06c.73.29,1.25.51,1.56.67h4.72l.75-.89c.9.7,1.34,1.15,1.34,1.34a.29.29,0,0,1-.14.21l-.5.39v7.7h-1.25Zm-3.22-6.8h-2V16h2Zm-2,3.23v3h2v-3Zm3.2-3.23V16h2V13.32Zm2,3.23h-2v3h2Zm7.63,0v2.68c0,1.29-.77,1.93-2.31,1.93a1.11,1.11,0,0,0-.75-1.08,8.87,8.87,0,0,0-1.67-.41v-.62a20.22,20.22,0,0,0,2.61.18c.55,0,.82-.23.82-.71V11.79A1,1,0,0,1,340,12a20.31,20.31,0,0,1-3.45,5.28L336,16.9a26.72,26.72,0,0,0,3-6.35,4.68,4.68,0,0,1,1.63.76V5.1a1.18,1.18,0,0,1-.69.28,19.22,19.22,0,0,1-3.08,5l-.45-.31a21.13,21.13,0,0,0,2.37-6c1.07.23,1.69.47,1.85.71V2.74h-4.42l-.23-.6h4.42l.85-1c.48.38.87.72,1.19,1h3.91l.88-1.07c.91.79,1.37,1.28,1.37,1.48a.23.23,0,0,1-.12.19l-.57.39v16c0,1.35-.76,2-2.29,2a1,1,0,0,0-.5-1,7.29,7.29,0,0,0-1.92-.55V19a15.11,15.11,0,0,0,2.4.16q1,0,1-.75v-7a1,1,0,0,1-.67.19,20.06,20.06,0,0,1-3.45,5.28ZM346.57,5a1.11,1.11,0,0,1-.69.29,19.73,19.73,0,0,1-3.07,5l-.46-.32a20.9,20.9,0,0,0,2.37-6,3.62,3.62,0,0,1,1.85.73V2.74h-4.24l-.39.3V16.52a26.21,26.21,0,0,0,3-6.34,5,5,0,0,1,1.63.77Z"/><path class="cls-1" d="M356.44,4.83l1.08-1.28c.52.48,1,1,1.46,1.44l-.23.44H351l-.24-.6Zm-.69,3,1-1.22A8.24,8.24,0,0,1,358,8l-.25.41H352l-.23-.6Zm0,3,1-1.17L358,11l-.28.46H352l-.25-.6Zm-2.52,3.07h2.9l.82-1c.9.79,1.34,1.29,1.34,1.49a.26.26,0,0,1-.16.23l-.53.36v6.53h-1.33V20h-3.14v1.53h-1.34v-8.3A13.71,13.71,0,0,1,353.23,13.9Zm2.61-12.1,1-1.27A14,14,0,0,1,358.22,2L358,2.4h-5.82l-.25-.6Zm-2.71,12.7v4.85h3.14V14.5Zm13.47-.45a13,13,0,0,0,1.1-2.74h-8.93l-.19-.6h6.24v-2H360l-.21-.6h5v-2c1.37.12,2.06.32,2.06.62s-.24.32-.71.46v.93h2.9L370,6.88a10.21,10.21,0,0,1,1.44,1.38l-.25.41h-5v2h4.12l1.06-1.3a16.12,16.12,0,0,1,1.44,1.42l-.24.48h-4.83l.39.14c.95.34,1.42.66,1.42.94s-.28.29-.84.29a15.33,15.33,0,0,1-1.25,1.37h2.39l1-1.25a17.78,17.78,0,0,1,1.38,1.37l-.24.48h-5.83v2.4h3.11l1.16-1.32a11.42,11.42,0,0,1,1.43,1.46l-.26.46h-5.44v3.83h-1.35V17.65H360l-.23-.6h5v-2.4h-5.45l-.24-.6Zm3.47-8.12h-8.9v.89h-1.3V1c.6.27,1.14.54,1.6.8h8.41L370.75.7c.93.74,1.39,1.2,1.39,1.4s-.08.21-.24.3l-.53.34V6.66h-1.3Zm-8.9-3.55v3h2.09V2.38Zm.62,9q2.25.72,2.25,1.8c0,.57-.27.85-.8.85-.33,0-.54-.22-.61-.65a2.68,2.68,0,0,0-1.13-1.57Zm4.86-9H364.5v3h2.15Zm1.21,0v3h2.21V2.38Z"/><path class="cls-1" d="M380.27,9.48v9.39c0,1.33-.76,2-2.28,2a1.15,1.15,0,0,0-.79-1.06,7.07,7.07,0,0,0-1.75-.43v-.62a20.87,20.87,0,0,0,2.68.16c.52,0,.77-.22.77-.67V9.48H375l-.24-.6h7.77l.89-1c1,.87,1.49,1.4,1.49,1.61s-.09.19-.26.27l-.68.28a26,26,0,0,1-2.11,4.28l-.55-.3a28,28,0,0,0,1.33-4.51Zm-.62-4.08a20.14,20.14,0,0,0,2.3-3h-6.44l-.27-.6H382l.84-1c1,.88,1.54,1.43,1.54,1.65s-.09.16-.26.23l-.72.25a32.08,32.08,0,0,1-3.19,2.88,2.62,2.62,0,0,1,1.08,1.75c0,.53-.25.8-.74.8-.27,0-.52-.23-.75-.67a9.47,9.47,0,0,0-3.62-3.46l.25-.5A12.47,12.47,0,0,1,379.65,5.4Zm2.86,15.53a13.76,13.76,0,0,0,5.18-3.76c1.21.58,1.81,1,1.81,1.35s-.19.25-.58.25l-.54,0a15.8,15.8,0,0,1-5.56,2.73Zm4.7-15.48h1.58a24,24,0,0,0,.53-3h-4.51l-.23-.6H394L395.13.39A17.19,17.19,0,0,1,396.74,2l-.25.44H391.2a21.8,21.8,0,0,1-1.68,3h3.83l.89-1.13c1,.75,1.45,1.22,1.45,1.43a.35.35,0,0,1-.2.3l-.6.38V17.26h-1.37v-1h-6.47v1h-1.37V4.68A15.67,15.67,0,0,1,387.21,5.45Zm-.16.6V8.62h6.47V6.05Zm6.47,6V9.22h-6.47V12Zm0,3.64v-3h-6.47v3Zm-2.18,1.53a13.17,13.17,0,0,1,4.11,1.61c.75.48,1.13,1,1.13,1.49s-.25.87-.75.87q-.37,0-.93-.63a11.53,11.53,0,0,0-3.84-2.85Z"/><path class="cls-1" d="M410.59,5.47v4.62h6.24l1.32-1.71a12.87,12.87,0,0,1,1.78,1.85l-.27.46h-9.07v2.88H415l.94-1.15c1,.74,1.54,1.23,1.54,1.49a.4.4,0,0,1-.25.33l-.62.38v6.86h-1.4V19.85H404.31v1.63h-1.39V12.83c.61.26,1.13.51,1.55.74h4.7V10.69h-9.29l-.26-.6h9.55V5.47h-5a16.82,16.82,0,0,1-3.19,4L400.54,9A20.53,20.53,0,0,0,404.25.8c1.52.43,2.29.81,2.29,1.15s-.35.36-1,.43c-.33.94-.67,1.77-1,2.5h4.67V0c1.68.07,2.52.28,2.52.62s-.36.44-1.1.68V4.88h5l1.24-1.73A13,13,0,0,1,418.49,5l-.27.48Zm-6.28,13.78h10.93V14.17H404.31Z"/><path class="cls-1" d="M6.67,48.68q-2.45-.12-3.6-.12c-.25,0-.61,0-1,0a14.12,14.12,0,0,1-1.44.07c-.39,0-.58-.09-.58-.27s.08-.2.23-.28A1.62,1.62,0,0,1,.86,48,2.62,2.62,0,0,0,2,47.75a1.54,1.54,0,0,0,.63-.55,5.27,5.27,0,0,0,.43-1l3.6-11.06a1,1,0,0,0,0-.34.74.74,0,0,0-.46-.71,4.88,4.88,0,0,0-1-.31l-.7-.13a1.14,1.14,0,0,1-.46-.18.38.38,0,0,1-.12-.3c0-.18.24-.26.72-.26s1.08,0,1.85,0S7.67,33,8,33a7.78,7.78,0,0,0,1.13-.07c.72,0,1.17-.07,1.34-.07A8.14,8.14,0,0,1,16,34.57a6.14,6.14,0,0,1,2,4.94,8.46,8.46,0,0,1-1.32,4.56A9.56,9.56,0,0,1,13,47.45a10.91,10.91,0,0,1-5.3,1.28Zm5.31-2a8.78,8.78,0,0,0,2.89-3.32,9.5,9.5,0,0,0,1-4.33A5.5,5.5,0,0,0,14.54,35a5.19,5.19,0,0,0-3.84-1.37,5.3,5.3,0,0,0-1.4.13,1,1,0,0,0-.58.34,4.31,4.31,0,0,0-.3.75L5.16,45.17A4,4,0,0,0,5,46.25,1.41,1.41,0,0,0,5.7,47.6,4.48,4.48,0,0,0,7.82,48,7.18,7.18,0,0,0,12,46.73Z"/><path class="cls-1" d="M19.67,48.53a3,3,0,0,1-.85-1,2.23,2.23,0,0,1-.34-1.14A8,8,0,0,1,19.36,43a9.31,9.31,0,0,1,2.32-3.08,4.66,4.66,0,0,1,3.06-1.25,2.17,2.17,0,0,1,1.31.35,1.15,1.15,0,0,1,.47,1A2.35,2.35,0,0,1,25,42.08a14.87,14.87,0,0,1-4,1.22l-.12,0a.34.34,0,0,0-.16.07.22.22,0,0,0-.08.14,7.57,7.57,0,0,0-.51,2.33,2.21,2.21,0,0,0,.33,1.3,1.09,1.09,0,0,0,.95.45,2.46,2.46,0,0,0,1.34-.36,5.49,5.49,0,0,0,1.1-.93.65.65,0,0,1,.44-.27.21.21,0,0,1,.24.24.33.33,0,0,1,0,.19,5.3,5.3,0,0,1-1.71,1.8,3.85,3.85,0,0,1-2.13.63A1.68,1.68,0,0,1,19.67,48.53Zm3-6.1a5.49,5.49,0,0,0,1.71-1A1.87,1.87,0,0,0,25.13,40a.84.84,0,0,0-.18-.54.58.58,0,0,0-.47-.23,2.37,2.37,0,0,0-1.4.67,8.51,8.51,0,0,0-1.42,1.52,2.6,2.6,0,0,0-.61,1.2c0,.06,0,.1.05.12l.12,0A5.2,5.2,0,0,0,22.66,42.43Z"/><path class="cls-1" d="M27.22,44.48a.21.21,0,0,1-.17-.11.39.39,0,0,1-.07-.23,1.2,1.2,0,0,1,.27-.72c.19-.24.35-.37.49-.38l4.4-.6h.07c.08,0,.12.06.12.19a1.54,1.54,0,0,1-.25.82.9.9,0,0,1-.62.43l-4.22.6Z"/><path class="cls-1" d="M32,48.41c0-.19.29-.33.87-.43a3.86,3.86,0,0,0,1.69-.59,2.41,2.41,0,0,0,.78-1.21l3.29-10.8a2.78,2.78,0,0,0,.16-.86.69.69,0,0,0-.33-.65,3.65,3.65,0,0,0-1.18-.31,1,1,0,0,1-.49-.15.29.29,0,0,1-.13-.26c0-.18.25-.26.74-.26.29,0,.56,0,.82,0,.83,0,1.53.05,2.09.05h3.86a17.37,17.37,0,0,0,2.7-.12l.59-.12a.23.23,0,0,1,.18.11.37.37,0,0,1,.08.2,2.89,2.89,0,0,1-.17.6A12.36,12.36,0,0,0,47,35.72a.52.52,0,0,1-.15.35.43.43,0,0,1-.26.1c-.08,0-.14-.05-.2-.16a.76.76,0,0,1-.06-.44,3.48,3.48,0,0,0,0-.5A1.59,1.59,0,0,0,46,33.94a1.58,1.58,0,0,0-1.13-.31H42a1.54,1.54,0,0,0-.81.16.91.91,0,0,0-.37.56l-1.61,5.09a1.43,1.43,0,0,0-.09.45c0,.21.16.31.48.29l3-.07a2,2,0,0,0,1-.25,3,3,0,0,0,.71-.64l.23-.3a1.87,1.87,0,0,1,.3-.32.41.41,0,0,1,.26-.12c.14,0,.22.09.22.26a1,1,0,0,1-.12.41c-.24.48-.46,1-.65,1.46A12.86,12.86,0,0,0,44,42.37c-.08.33-.19.5-.31.5s-.2-.07-.24-.22a1.26,1.26,0,0,1-.08-.43c0-.89-.3-1.34-.91-1.34l-2.76-.05a1.78,1.78,0,0,0-.77.13.89.89,0,0,0-.38.61L37.3,45.94a4.39,4.39,0,0,0-.22,1.2.73.73,0,0,0,.24.63,1.44,1.44,0,0,0,.79.16h3.72a3.28,3.28,0,0,0,1.92-.64,5.11,5.11,0,0,0,1.3-1.52l.14-.22a.35.35,0,0,1,.29-.21c.11,0,.17.16.17.48a3.55,3.55,0,0,1-.33,1.11,8,8,0,0,1-.61,1.24.91.91,0,0,1-.79.51l-5-.07c-1.26,0-2.41-.08-3.43-.08a12,12,0,0,0-1.42.08l-.61,0a7.94,7.94,0,0,1-.85,0C32.18,48.68,32,48.59,32,48.41Z"/><path class="cls-1" d="M46.46,48.65a.82.82,0,0,1-.28-.67,1.74,1.74,0,0,1,.38-1c.26-.37.49-.55.7-.55s.32.14.38.43.25.55.46.55h0a.84.84,0,0,0,.6-.28c.37-.37.91-1,1.61-1.8l.89-1a.37.37,0,0,0,.07-.43l-.91-3.36a1,1,0,0,0-.14-.33.29.29,0,0,0-.22-.08,1,1,0,0,0-.55.33,5.21,5.21,0,0,0-.79.92s-.06.09-.14.21a.31.31,0,0,1-.27.18c-.11,0-.17-.14-.17-.41a2.14,2.14,0,0,1,.43-1.12,4.89,4.89,0,0,1,1-1.14,1.84,1.84,0,0,1,1.11-.48.75.75,0,0,1,.61.29,2.73,2.73,0,0,1,.4.94l.6,2.54c0,.13.08.19.14.19a.26.26,0,0,0,.19-.14L54.31,40a4.09,4.09,0,0,1,1-1,2,2,0,0,1,1.17-.42,1.23,1.23,0,0,1,.83.37,1.05,1.05,0,0,1,.4.69,1.55,1.55,0,0,1-.35.8c-.23.33-.45.49-.64.49s-.32-.13-.43-.4a1.32,1.32,0,0,0-.24-.44.4.4,0,0,0-.29-.12c-.35,0-.81.34-1.37,1a19.74,19.74,0,0,0-1.58,2.07.77.77,0,0,0-.12.43,1.64,1.64,0,0,0,.07.41l.82,3c.11.38.28.57.5.57a1.12,1.12,0,0,0,.79-.52,5.68,5.68,0,0,0,.8-1.4c.09-.22.2-.33.31-.33a.18.18,0,0,1,.15.09,1,1,0,0,1,.06.44A3.18,3.18,0,0,1,55.84,47a4.58,4.58,0,0,1-.93,1.35,1.72,1.72,0,0,1-1.22.57,1.16,1.16,0,0,1-.95-.38,3.31,3.31,0,0,1-.56-1.22l-.53-2.19c0-.21-.11-.31-.17-.31a.19.19,0,0,0-.12.07l-.1.1-.88,1.15-1.44,1.8a3.43,3.43,0,0,1-.89.77,1.91,1.91,0,0,1-.89.21A1.08,1.08,0,0,1,46.46,48.65Z"/><path class="cls-1" d="M58.16,48.07a3,3,0,0,1-.66-1.89,8.23,8.23,0,0,1,.8-3.32,8.76,8.76,0,0,1,2.12-3,4.15,4.15,0,0,1,2.84-1.23,2.27,2.27,0,0,1,1.85.81,3,3,0,0,1,.67,2A8.1,8.1,0,0,1,65,44.72a8.27,8.27,0,0,1-2.18,3,4.67,4.67,0,0,1-3.13,1.21A1.92,1.92,0,0,1,58.16,48.07ZM62,46.91a11.1,11.1,0,0,0,1.63-3,9.26,9.26,0,0,0,.65-3.11A2.1,2.1,0,0,0,64,39.71a.88.88,0,0,0-.8-.37,2.65,2.65,0,0,0-1.88,1.17,9.92,9.92,0,0,0-1.64,2.9A9.25,9.25,0,0,0,59,46.69c0,1,.34,1.48,1,1.48A2.64,2.64,0,0,0,62,46.91Z"/><path class="cls-1" d="M67.1,48.58a.86.86,0,0,1-.33-.57,2.3,2.3,0,0,1,.14-.83l.19-.52,2.28-6.41,0-.09c0-.13-.09-.19-.27-.19l-1,0c-.28,0-.43-.13-.43-.34,0-.06.09-.17.26-.33a.84.84,0,0,1,.56-.24h.86a.62.62,0,0,0,.35-.08.75.75,0,0,0,.23-.36l.57-1.17a2.63,2.63,0,0,1,.63-.69,1.45,1.45,0,0,1,.67-.39.22.22,0,0,1,.19.12.57.57,0,0,1,.07.31.74.74,0,0,1-.07.34l-.62,1.6,0,.1a.13.13,0,0,0,.09.13.54.54,0,0,0,.25,0,11.44,11.44,0,0,1,1.8.19,1.56,1.56,0,0,1,.45.14.25.25,0,0,1,.1.22c0,.05,0,.1-.11.17a.68.68,0,0,1-.35.12l-2,.12c-.42,0-.67.13-.74.36l-2.14,5.9a1.4,1.4,0,0,0-.1.51c0,.3.18.45.53.45a1.68,1.68,0,0,0,1-.38,13.89,13.89,0,0,0,1.11-1,.69.69,0,0,1,.46-.24c.13,0,.19,0,.19.17a1.35,1.35,0,0,1-.43.79,9.85,9.85,0,0,1-2,1.67,4,4,0,0,1-1.67.7A1,1,0,0,1,67.1,48.58Z"/><path class="cls-1" d="M74.15,48.64a.73.73,0,0,1-.28-.56.88.88,0,0,1,.07-.39q1-2.09,2.35-5.52.22-.64.51-1.32a.46.46,0,0,0,0-.14.12.12,0,0,0-.14-.14,2.47,2.47,0,0,0-.84.3,5.6,5.6,0,0,0-1,.61.26.26,0,0,1-.17.05c-.15,0-.22-.05-.22-.15s.17-.4.49-.72a9.41,9.41,0,0,1,1.34-1,12,12,0,0,1,1.8-1,.4.4,0,0,1,.42,0,1,1,0,0,1,.36.36.47.47,0,0,1,.08.35L76,46.33a1.67,1.67,0,0,0-.17.69c0,.19.13.29.39.29a1.71,1.71,0,0,0,1-.5c.39-.34.93-.85,1.62-1.54a.14.14,0,0,1,.09-.05q.15,0,.15.12a2.42,2.42,0,0,1-.77,1.36,9.16,9.16,0,0,1-1.79,1.52,3.31,3.31,0,0,1-1.71.67A.92.92,0,0,1,74.15,48.64ZM79.05,36a1,1,0,0,1-.24-.65,1.49,1.49,0,0,1,.39-1,1.21,1.21,0,0,1,1-.43.7.7,0,0,1,.59.31,1.2,1.2,0,0,1,.22.72,1.34,1.34,0,0,1-.39,1,1.27,1.27,0,0,1-.93.41A.76.76,0,0,1,79.05,36Z"/><path class="cls-1" d="M81.26,48.59a2.5,2.5,0,0,1-.79-.88,2.56,2.56,0,0,1-.31-1.26,8.88,8.88,0,0,1,.76-3.4,8.52,8.52,0,0,1,2.17-3.13,4.74,4.74,0,0,1,3.33-1.3,1.82,1.82,0,0,1,1,.23.64.64,0,0,1,.34.54,1.46,1.46,0,0,1-.24.79q-.24.39-.48.39a.36.36,0,0,1-.29-.15,2.92,2.92,0,0,1-.28-.43,1.89,1.89,0,0,0-.4-.53.87.87,0,0,0-.59-.19c-.49,0-1,.39-1.58,1.16a11.26,11.26,0,0,0-1.42,2.82,9.25,9.25,0,0,0-.57,3,1.5,1.5,0,0,0,.3,1,1.11,1.11,0,0,0,.85.31,2.23,2.23,0,0,0,1.11-.24,5.91,5.91,0,0,0,1-.79l.14-.13a.63.63,0,0,1,.18-.14.27.27,0,0,1,.16,0c.13,0,.2.1.2.31s-.19.49-.56.88a5.26,5.26,0,0,1-1.39,1,3.5,3.5,0,0,1-1.73.46A1.64,1.64,0,0,1,81.26,48.59Z"/><path class="cls-1" d="M88.23,48.64a.75.75,0,0,1-.27-.56.88.88,0,0,1,.07-.39q1-2.09,2.35-5.52c.15-.43.31-.87.51-1.32a.46.46,0,0,0,0-.14.12.12,0,0,0-.14-.14,2.47,2.47,0,0,0-.84.3,6.08,6.08,0,0,0-1,.61.22.22,0,0,1-.16.05c-.15,0-.22-.05-.22-.15s.16-.4.49-.72a9.25,9.25,0,0,1,1.33-1,12,12,0,0,1,1.8-1,.4.4,0,0,1,.42,0,.89.89,0,0,1,.36.36.44.44,0,0,1,.09.35l-2.93,6.94a1.67,1.67,0,0,0-.17.69c0,.19.13.29.39.29a1.77,1.77,0,0,0,1-.5c.39-.34.93-.85,1.62-1.54a.14.14,0,0,1,.09-.05q.15,0,.15.12a2.42,2.42,0,0,1-.77,1.36,9.16,9.16,0,0,1-1.79,1.52,3.31,3.31,0,0,1-1.72.67A1,1,0,0,1,88.23,48.64ZM93.14,36a1,1,0,0,1-.24-.65,1.49,1.49,0,0,1,.39-1,1.21,1.21,0,0,1,1-.43.68.68,0,0,1,.58.31,1.15,1.15,0,0,1,.23.72,1.34,1.34,0,0,1-.39,1,1.28,1.28,0,0,1-.93.41A.76.76,0,0,1,93.14,36Z"/><path class="cls-1" d="M103.56,39.34A4.15,4.15,0,0,1,103,40l-6.29,6.2h.07a1.7,1.7,0,0,1,.9.25,9.13,9.13,0,0,1,1,.75c.4.32.71.56.92.7a1.28,1.28,0,0,0,.69.22.92.92,0,0,0,1-.63,5.06,5.06,0,0,0,.22-1.68,1.3,1.3,0,0,1,.08-.56c0-.09.14-.13.28-.13a.66.66,0,0,1,.54.34,1.48,1.48,0,0,1,.26.88,2.14,2.14,0,0,1-.59,1.33,6,6,0,0,1-1.36,1.2,2.47,2.47,0,0,1-1.2.49,1.73,1.73,0,0,1-1-.31,7.35,7.35,0,0,1-1.07-.89c-.34-.32-.59-.54-.75-.67a.72.72,0,0,0-.45-.19,1.52,1.52,0,0,0-1.11.41,1.34,1.34,0,0,0-.4,1c0,.23-.12.34-.36.34-.05,0-.12-.08-.21-.23a.9.9,0,0,1-.13-.47,1.63,1.63,0,0,1,.58-1.2L101,40.9a2.19,2.19,0,0,1-.67-.17,5,5,0,0,1-.75-.33,6.62,6.62,0,0,0-1.07-.47,3.13,3.13,0,0,0-1-.16,1.12,1.12,0,0,0-.79.35,1,1,0,0,0-.36.71,1.5,1.5,0,0,0,.24.86.42.42,0,0,1,.1.24.32.32,0,0,1-.1.2,1.7,1.7,0,0,1-.5.34,1.45,1.45,0,0,1-.48.18c-.1,0-.21-.07-.33-.22a.94.94,0,0,1-.18-.59,2,2,0,0,1,.28-1.06,5.25,5.25,0,0,1,.92-1.05A4.5,4.5,0,0,1,97.52,39a2.87,2.87,0,0,1,1.14-.36,2.44,2.44,0,0,1,.71.1c.23.06.52.16.88.29l.66.25a2.49,2.49,0,0,0,.85.2,1.19,1.19,0,0,0,.56-.11,1.94,1.94,0,0,0,.52-.39,1.17,1.17,0,0,1,.72-.43s.09,0,.14.09a.32.32,0,0,1,.07.19A1.1,1.1,0,0,1,103.56,39.34Z"/><path class="cls-1" d="M104.66,48.58a.86.86,0,0,1-.33-.57,2.3,2.3,0,0,1,.14-.83l.19-.52,2.28-6.41,0-.09c0-.13-.09-.19-.27-.19l-1,0c-.29,0-.43-.13-.43-.34,0-.06.09-.17.26-.33a.83.83,0,0,1,.56-.24H107a.62.62,0,0,0,.35-.08.75.75,0,0,0,.23-.36l.57-1.17a2.63,2.63,0,0,1,.63-.69,1.45,1.45,0,0,1,.67-.39.22.22,0,0,1,.19.12.57.57,0,0,1,.07.31.74.74,0,0,1-.07.34l-.62,1.6,0,.1a.13.13,0,0,0,.09.13.54.54,0,0,0,.25,0,11.44,11.44,0,0,1,1.8.19,1.56,1.56,0,0,1,.45.14.25.25,0,0,1,.1.22c0,.05,0,.1-.11.17a.68.68,0,0,1-.35.12l-2,.12q-.63,0-.75.36l-2.13,5.9a1.4,1.4,0,0,0-.1.51c0,.3.18.45.53.45a1.68,1.68,0,0,0,1-.38,13.89,13.89,0,0,0,1.11-1,.69.69,0,0,1,.46-.24c.13,0,.19,0,.19.17a1.35,1.35,0,0,1-.43.79,9.85,9.85,0,0,1-2,1.67,4,4,0,0,1-1.67.7A1,1,0,0,1,104.66,48.58Z"/><path class="cls-1" d="M111.71,48.64a.73.73,0,0,1-.28-.56.88.88,0,0,1,.07-.39q1-2.09,2.35-5.52.23-.64.51-1.32a.46.46,0,0,0,0-.14.12.12,0,0,0-.14-.14,2.47,2.47,0,0,0-.84.3,5.6,5.6,0,0,0-1,.61.26.26,0,0,1-.17.05c-.15,0-.22-.05-.22-.15s.17-.4.49-.72a9.41,9.41,0,0,1,1.34-1,12,12,0,0,1,1.8-1,.4.4,0,0,1,.42,0,1,1,0,0,1,.36.36.47.47,0,0,1,.08.35l-2.93,6.94a1.67,1.67,0,0,0-.17.69c0,.19.13.29.39.29a1.71,1.71,0,0,0,1-.5c.39-.34.93-.85,1.62-1.54a.14.14,0,0,1,.09-.05q.15,0,.15.12a2.42,2.42,0,0,1-.77,1.36,9.16,9.16,0,0,1-1.79,1.52,3.31,3.31,0,0,1-1.71.67A.92.92,0,0,1,111.71,48.64ZM116.61,36a1,1,0,0,1-.24-.65,1.49,1.49,0,0,1,.39-1,1.21,1.21,0,0,1,1-.43.7.7,0,0,1,.59.31,1.2,1.2,0,0,1,.22.72,1.34,1.34,0,0,1-.39,1,1.27,1.27,0,0,1-.93.41A.76.76,0,0,1,116.61,36Z"/><path class="cls-1" d="M118.55,48.67a1,1,0,0,1-.21-.57.76.76,0,0,1,0-.21l2.78-6.82a2.37,2.37,0,0,0,.24-.84c0-.14-.06-.22-.19-.22a1.79,1.79,0,0,0-.85.22,3.35,3.35,0,0,0-.92.89.25.25,0,0,1-.2.09c-.09,0-.15-.06-.16-.19a1.12,1.12,0,0,1,.14-.56,3.47,3.47,0,0,1,.36-.64,2.48,2.48,0,0,1,1-.86,3.41,3.41,0,0,1,1.42-.34.87.87,0,0,1,.59.22.68.68,0,0,1,.25.55,1.38,1.38,0,0,1,0,.26l-1.58,4.08,0,.1a.09.09,0,0,0,.1.1.16.16,0,0,0,.14-.1,16.21,16.21,0,0,1,3-3.83A4.3,4.3,0,0,1,127,38.62a1.29,1.29,0,0,1,1,.43,1.59,1.59,0,0,1,.4,1.13,2.71,2.71,0,0,1-.24,1.08L126,46.49a1.73,1.73,0,0,0-.14.58c0,.19.08.29.26.29a2.9,2.9,0,0,0,1.44-.64,9.88,9.88,0,0,0,1.3-1,.08.08,0,0,1,.07,0,.18.18,0,0,1,.13.06.21.21,0,0,1,.06.16.52.52,0,0,1-.1.33,9,9,0,0,1-2.11,1.92,4.1,4.1,0,0,1-2.21.72.78.78,0,0,1-.54-.24.76.76,0,0,1-.25-.55.6.6,0,0,1,0-.26l.48-1.08c.16-.35.48-1.09,1-2.22s.92-2.17,1.29-3.11a3.88,3.88,0,0,0,.28-1.18c0-.41-.16-.62-.5-.62a1.9,1.9,0,0,0-1,.47A8,8,0,0,0,124,41.5c-.38.47-1,1.37-1.87,2.7s-1.67,2.67-2.43,4a2.4,2.4,0,0,1-.38.57.47.47,0,0,1-.36.17A.55.55,0,0,1,118.55,48.67Z"/><path class="cls-1" d="M129.25,54.8a2.17,2.17,0,0,1-1.43-1.92c0-.48.44-1,1.32-1.39a23.67,23.67,0,0,1,3.46-1.37c.13,0,.14-.12.05-.22a7,7,0,0,1-.89-.84,1,1,0,0,1-.27-.65c0-.38.4-.87,1.2-1.46.13-.11.2-.21.2-.29s-.07-.09-.2-.14a2,2,0,0,1-1-.87,3,3,0,0,1-.26-1.36,5.81,5.81,0,0,1,.63-2.45,6.84,6.84,0,0,1,1.71-2.28,3.35,3.35,0,0,1,2.26-.94,2,2,0,0,1,.82.13l.29.16.25.14a.84.84,0,0,0,.42.12,7.31,7.31,0,0,0,1.06-.14l.6-.1a5.51,5.51,0,0,1,.69-.07.56.56,0,0,1,.35.15.48.48,0,0,1,.18.4,1.21,1.21,0,0,1-.13.63.37.37,0,0,1-.3.21,4.55,4.55,0,0,1-1-.16l-.4-.08a2.25,2.25,0,0,0-.44,0c-.26,0-.36.11-.29.33a3.63,3.63,0,0,1,.09.87,5.67,5.67,0,0,1-.64,2.52,7.07,7.07,0,0,1-1.66,2.16,3.15,3.15,0,0,1-2,.86.7.7,0,0,0-.53.29,1.16,1.16,0,0,0-.05,1.4,4.28,4.28,0,0,0,.84.71l1.2.79c1,.64,1.59,1,1.78,1.18a2.66,2.66,0,0,1,.72.69,1.34,1.34,0,0,1,.22.7,2,2,0,0,1-.82,1.5,6,6,0,0,1-2,1.13,7.25,7.25,0,0,1-2.35.42A7.94,7.94,0,0,1,129.25,54.8Zm6.36-.48a1.39,1.39,0,0,0,.68-1.18,1.71,1.71,0,0,0-1-1.46l-.73-.48-.66-.41a1.55,1.55,0,0,0-.67-.24,2.31,2.31,0,0,0-.6.1,9.2,9.2,0,0,0-2.36,1,1.54,1.54,0,0,0-.81,1.25,1.19,1.19,0,0,0,.6.93,4.64,4.64,0,0,0,1.55.69,7.8,7.8,0,0,0,1.93.25A3.59,3.59,0,0,0,135.61,54.32Zm-.41-9.24a10.91,10.91,0,0,0,1.25-2.46,7.07,7.07,0,0,0,.52-2.2,1.31,1.31,0,0,0-.26-.75.7.7,0,0,0-.58-.38,2,2,0,0,0-1.46,1,9,9,0,0,0-1.28,2.33,8.13,8.13,0,0,0-.58,2.4,1.26,1.26,0,0,0,.29.81.88.88,0,0,0,.7.34C134.25,46.13,134.71,45.78,135.2,45.08Z"/><path class="cls-1" d="M144.41,48.41a.24.24,0,0,1,.16-.22,3.94,3.94,0,0,1,.65-.23,4.9,4.9,0,0,0,1.2-.45,1.07,1.07,0,0,0,.48-.68l3.58-11.5a4.61,4.61,0,0,0,.21-1,.5.5,0,0,0-.2-.44,1.84,1.84,0,0,0-.68-.28,1.08,1.08,0,0,1-.46-.18.38.38,0,0,1-.12-.3c0-.18.24-.26.72-.26s.9,0,1.32,0l1,0,1,0c.48,0,.93,0,1.37,0s.57.08.57.26-.29.38-.89.48a2.81,2.81,0,0,0-1.34.58,2.32,2.32,0,0,0-.7,1.12l-1.46,4.73v.07q0,.15.24.15h8a.17.17,0,0,0,.14-.07.65.65,0,0,0,.1-.22l1.46-4.68a2.41,2.41,0,0,0,.12-.62c0-.55-.36-.9-1.08-1.06a1.08,1.08,0,0,1-.45-.18.38.38,0,0,1-.12-.3c0-.18.24-.26.72-.26s.91,0,1.39,0l1.18,0,.79,0c.35,0,.77,0,1.25,0s.57.08.57.26-.29.38-.89.48a1.8,1.8,0,0,0-1.11.52,3.77,3.77,0,0,0-.57,1.16l-3.48,11.3a1.92,1.92,0,0,0-.09.56c0,.43.3.7.91.81a1.51,1.51,0,0,1,.47.17.29.29,0,0,1,.13.26q0,.27-.72.27a11.39,11.39,0,0,1-1.32-.07,8.35,8.35,0,0,0-1,0c-.29,0-.64,0-1.06,0a12,12,0,0,1-1.36.07c-.39,0-.58-.09-.58-.27s.29-.33.86-.43a2.43,2.43,0,0,0,2.07-1.75l1.49-4.68a.71.71,0,0,0,0-.16.64.64,0,0,0,0-.15s0-.05-.07-.05h-8.28c-.09,0-.15.09-.2.26L149,46.06a2.7,2.7,0,0,0-.15.82.88.88,0,0,0,.32.74,2.19,2.19,0,0,0,1,.36,1.34,1.34,0,0,1,.46.17.3.3,0,0,1,.14.26q0,.27-.72.27a13.54,13.54,0,0,1-1.42-.07c-.48,0-.87,0-1.18,0s-.65,0-1.1,0a12.49,12.49,0,0,1-1.39.07C144.59,48.68,144.41,48.59,144.41,48.41Z"/><path class="cls-1" d="M163.15,48.56a1,1,0,0,1-.38-.72A6.15,6.15,0,0,1,164,44.67a18.49,18.49,0,0,1,3.3-3.67c1.71-1.51,2.81-2.26,3.31-2.26a.85.85,0,0,1,.67.34,2.55,2.55,0,0,0,.31.41l.12-.2a5.53,5.53,0,0,0,.41-.72c.1-.16.19-.24.29-.24a1.23,1.23,0,0,1,.62.17c.19.11.29.23.29.34a2.9,2.9,0,0,1-.17.6l-2.69,7.13a1,1,0,0,0-.09.4.36.36,0,0,0,.41.41,2,2,0,0,0,1-.42,4.7,4.7,0,0,0,1.07-1,.24.24,0,0,1,.21-.12c.12,0,.17.09.17.27a1.7,1.7,0,0,1-.33.66,6.9,6.9,0,0,1-.7.85,6.06,6.06,0,0,1-1.36,1,2.89,2.89,0,0,1-1.26.33,1,1,0,0,1-.7-.3.86.86,0,0,1-.33-.63,1.17,1.17,0,0,1,.15-.55q-.15.26.06-.21c.13-.31.3-.68.5-1.1s.39-.83.56-1.21a.89.89,0,0,0,.11-.4c0-.09-.06-.08-.15,0a26.56,26.56,0,0,1-3.48,3.4,4.14,4.14,0,0,1-2.38,1A1.26,1.26,0,0,1,163.15,48.56Zm3.77-2.05a19.28,19.28,0,0,0,2.35-2.44,13.54,13.54,0,0,0,1.44-1.94,3.16,3.16,0,0,0,.53-1.32c0-.13-.11-.28-.31-.46a1.09,1.09,0,0,0-.6-.26,2.61,2.61,0,0,0-1.19.43,6.71,6.71,0,0,0-1.38,1,14.68,14.68,0,0,0-2.17,2.7,4.86,4.86,0,0,0-1,2.32.85.85,0,0,0,.19.58.61.61,0,0,0,.5.23A3.1,3.1,0,0,0,166.92,46.51Z"/><path class="cls-1" d="M175.26,48.79a.53.53,0,0,1-.21-.4,2.41,2.41,0,0,1,.16-.74c.1-.32.24-.69.4-1.11l2.2-5.76a1.12,1.12,0,0,0,.1-.5c0-.23-.08-.34-.24-.34A2.41,2.41,0,0,0,177,40a2.13,2.13,0,0,0-.51.18.36.36,0,0,1-.19,0c-.15,0-.22-.08-.22-.24a.77.77,0,0,1,.18-.43,2,2,0,0,1,.49-.45,2.44,2.44,0,0,1,1.51-.51c.64,0,1,.27,1,.79a5.62,5.62,0,0,1-.48,1.73l-1.08,2.71,0,.1a.13.13,0,0,0,.13.14A.14.14,0,0,0,178,44a22.46,22.46,0,0,1,2.87-4c1-1,1.71-1.53,2.27-1.53a1,1,0,0,1,.85.34,1.33,1.33,0,0,1,.28.86,2.57,2.57,0,0,1-.36,1.32q-.36.63-.84.63t-.39-.84c0-.52-.15-.77-.45-.77s-.92.46-1.64,1.39c-.38.5-.93,1.3-1.64,2.4s-1.31,2.08-1.79,2.93c0,.05-.21.37-.53,1a7.84,7.84,0,0,1-.57,1,.52.52,0,0,1-.39.27A.58.58,0,0,1,175.26,48.79Z"/><path class="cls-1" d="M184.38,48.67a1.53,1.53,0,0,1-.42-.54.65.65,0,0,1-.07-.51l2.52-6.07a2.62,2.62,0,0,0,.21-.77c0-.14-.05-.21-.14-.21s-.79.42-1.73,1.27l-.12,0c-.13,0-.19,0-.19-.09a1.15,1.15,0,0,1,.29-.72A6.4,6.4,0,0,1,186,39.73a7.33,7.33,0,0,1,1.4-.89,2.72,2.72,0,0,1,1-.31.6.6,0,0,1,.43.27.47.47,0,0,1,.09.52q-.74,1.56-2,4.51L186,45.94a2.69,2.69,0,0,0-.26,1c0,.2.06.31.19.31s.59-.25,1.09-.73,1.17-1.2,2-2.13,1.65-2,2.47-3.06,1.34-1.88,1.58-2.31a.66.66,0,0,1,.6-.39c.15,0,.28.11.42.31a.53.53,0,0,1,.11.51l-3.07,7.05a1.94,1.94,0,0,0-.17.65c0,.19.08.29.24.29a2.44,2.44,0,0,0,1.22-.61A14.91,14.91,0,0,0,194,45.51s0,0,.07,0a.22.22,0,0,1,.14.06.18.18,0,0,1,.07.15,1.87,1.87,0,0,1-.52.84,8.82,8.82,0,0,1-1.79,1.68,3.48,3.48,0,0,1-2,.67.63.63,0,0,1-.49-.3,1,1,0,0,1-.23-.61.76.76,0,0,1,0-.21q1.56-3.36,1.83-4.08l0-.2q0-.12-.09-.12a.35.35,0,0,0-.24.12q-2.72,3-4,4.18c-.86.82-1.49,1.22-1.87,1.22A.84.84,0,0,1,184.38,48.67Z"/><path class="cls-1" d="M201,48.77a2.38,2.38,0,0,1-.61-.88l-.91-2.55a2.16,2.16,0,0,0-.46-.75.88.88,0,0,0-.65-.3c-.14,0-.36.33-.64,1-.16.39-.36.87-.58,1.44s-.41,1.06-.55,1.44a2.6,2.6,0,0,1-.27.62.43.43,0,0,1-.36.13.68.68,0,0,1-.4-.17.45.45,0,0,1-.22-.36,3.73,3.73,0,0,1,.19-1l4-12.43a4.5,4.5,0,0,0,.24-1.37c0-.19-.18-.35-.53-.48s-.62-.27-.62-.33a.28.28,0,0,1,.14-.27,13.67,13.67,0,0,1,1.49-.57,5.22,5.22,0,0,1,1.22-.32q.39,0,.39.24a2.13,2.13,0,0,1-.07.56l-3.24,9.86a.43.43,0,0,0,0,.17c0,.05,0,.07.05.07a.22.22,0,0,0,.19-.14,11.66,11.66,0,0,1,2.68-2.74,4.69,4.69,0,0,1,2.65-1,1.64,1.64,0,0,1,1,.29.9.9,0,0,1,.44.79,2.64,2.64,0,0,1-.84,1.71,9.57,9.57,0,0,1-2,1.67,7.79,7.79,0,0,1-2,1c-.08,0-.13.06-.14.09s0,.09,0,.17l1.1,2.62a1.54,1.54,0,0,0,.34.49.68.68,0,0,0,.46.2,1.29,1.29,0,0,0,.86-.41,4.69,4.69,0,0,0,.82-1,.82.82,0,0,1,.2-.25.32.32,0,0,1,.18-.06s.06,0,.1.09a.48.48,0,0,1,0,.2,2,2,0,0,1-.51,1.15,7,7,0,0,1-1.18,1.19,2,2,0,0,1-1,.51A1.32,1.32,0,0,1,201,48.77Zm.36-5.67a6.87,6.87,0,0,0,1.77-1.38,2.23,2.23,0,0,0,.72-1.32c0-.51-.29-.77-.87-.77a2.65,2.65,0,0,0-1.53.74A10.72,10.72,0,0,0,199.77,42a2.85,2.85,0,0,0-.72,1.25.55.55,0,0,0,.08.29.22.22,0,0,0,.21.12A4,4,0,0,0,201.32,43.1Z"/><path class="cls-1" d="M206.77,48.64a.73.73,0,0,1-.28-.56,1,1,0,0,1,.07-.39q1-2.09,2.36-5.52c.14-.43.31-.87.5-1.32a.28.28,0,0,0,0-.14c0-.1,0-.14-.14-.14a2.62,2.62,0,0,0-.84.3,5.6,5.6,0,0,0-1,.61.25.25,0,0,1-.17.05q-.21,0-.21-.15c0-.16.16-.4.49-.72a8.72,8.72,0,0,1,1.33-1,12,12,0,0,1,1.8-1,.4.4,0,0,1,.42,0,1,1,0,0,1,.36.36.43.43,0,0,1,.08.35l-2.93,6.94a1.65,1.65,0,0,0-.16.69c0,.19.12.29.38.29a1.71,1.71,0,0,0,1-.5c.39-.34.93-.85,1.62-1.54a.14.14,0,0,1,.1-.05c.09,0,.14,0,.14.12a2.42,2.42,0,0,1-.77,1.36,9.39,9.39,0,0,1-1.78,1.52,3.37,3.37,0,0,1-1.72.67A.92.92,0,0,1,206.77,48.64ZM211.68,36a1,1,0,0,1-.24-.65,1.48,1.48,0,0,1,.38-1,1.23,1.23,0,0,1,1-.43.69.69,0,0,1,.59.31,1.21,1.21,0,0,1,.23.72,1.31,1.31,0,0,1-.4,1,1.25,1.25,0,0,1-.92.41A.76.76,0,0,1,211.68,36Z"/><path class="cls-1" d="M226.83,48.73a1.37,1.37,0,0,1-.06-.44c0-1.52.08-3,.08-4.53q0-3.12-.17-7.49c0-.34-.08-.5-.22-.5s-.29.19-.48.57q-2.08,4.06-4.08,8.71a6.88,6.88,0,0,0-.65,2.19.68.68,0,0,0,.15.49.72.72,0,0,0,.43.2c.48.07.72.2.72.41s-.08.17-.25.22a2,2,0,0,1-.57.07c-.41,0-.86,0-1.34-.05l-1.25,0a4.11,4.11,0,0,0-.82.07c-.57,0-1,.07-1.24.07a1.25,1.25,0,0,1-.45-.05.19.19,0,0,1-.13-.19q0-.32.84-.45a3.51,3.51,0,0,0,1.72-.78,7.93,7.93,0,0,0,1.47-2.13l4.78-9.31a2.39,2.39,0,0,0,.31-1,.92.92,0,0,0-.44-.78,3.54,3.54,0,0,0-1.43-.44,2.89,2.89,0,0,1-.74-.16.27.27,0,0,1-.2-.25c0-.26.34-.38,1-.38l1.73,0c.8,0,1.52.08,2.16.08a.58.58,0,0,1,.6.34,3.41,3.41,0,0,1,.09,1.29l.2,10.13a.84.84,0,0,0,.06.36c0,.08.08.12.13.12s.3-.14.53-.41q3.12-3.53,7.46-8.71l1.06-1.25.38-.77c.19-.38.31-.62.36-.7a.58.58,0,0,1,.5-.33H240c.09,0,.41,0,1-.1s.95-.09,1.12-.09a1.4,1.4,0,0,1,.56.1c.16.08.24.16.24.26a.36.36,0,0,1-.22.33,2.16,2.16,0,0,1-.77.19,4.38,4.38,0,0,0-1.15.26,1.26,1.26,0,0,0-.58.52,6.44,6.44,0,0,0-.47,1.26c-.76,2.6-1.47,5.65-2.14,9.17a7.8,7.8,0,0,0-.17,1.47,1.88,1.88,0,0,0,.28,1.14,1.27,1.27,0,0,0,.87.46,1.12,1.12,0,0,1,.49.15.3.3,0,0,1,.14.26c0,.08-.08.15-.22.21a1.5,1.5,0,0,1-.5.08,10,10,0,0,1-1.51-.14l-.56-.08a7.63,7.63,0,0,0-.84,0,6.14,6.14,0,0,0-.78,0l-.47.08a7.18,7.18,0,0,1-1.34.14c-.37,0-.55-.1-.55-.29s.28-.33.84-.45a2.32,2.32,0,0,0,1.14-.58,3.37,3.37,0,0,0,.68-1.25q1.48-4.61,2.72-9.55v0c0-.06,0-.09-.1-.09a.22.22,0,0,0-.19.09l-7.08,8.21-2.81,3.65q-.47.57-.6.57C226.92,48.89,226.87,48.84,226.83,48.73Z"/><path class="cls-1" d="M242.55,48.67a1.79,1.79,0,0,1-.42-.54.7.7,0,0,1-.07-.51l2.52-6.07a2.43,2.43,0,0,0,.22-.77q0-.21-.15-.21c-.21,0-.78.42-1.73,1.27a.22.22,0,0,1-.12,0c-.12,0-.19,0-.19-.09a1.21,1.21,0,0,1,.29-.72,7.62,7.62,0,0,1,2.69-2.21,2.68,2.68,0,0,1,1-.31.58.58,0,0,1,.43.27.46.46,0,0,1,.1.52q-.75,1.56-2,4.51l-.91,2.11a2.55,2.55,0,0,0-.27,1c0,.2.07.31.19.31s.59-.25,1.1-.73,1.17-1.2,2-2.13,1.66-2,2.47-3.06A26.84,26.84,0,0,0,251.28,39a.65.65,0,0,1,.6-.39c.14,0,.28.11.42.31s.17.38.1.51l-3.07,7.05a1.94,1.94,0,0,0-.17.65c0,.19.08.29.24.29a2.46,2.46,0,0,0,1.23-.61,14.78,14.78,0,0,0,1.51-1.31.08.08,0,0,1,.07,0,.24.24,0,0,1,.15.06.21.21,0,0,1,.07.15c0,.15-.18.43-.53.84a8.56,8.56,0,0,1-1.79,1.68,3.45,3.45,0,0,1-2,.67.62.62,0,0,1-.49-.3,1,1,0,0,1-.23-.61.52.52,0,0,1,.05-.21c1-2.24,1.64-3.6,1.82-4.08l.05-.2c0-.08,0-.12-.1-.12a.35.35,0,0,0-.24.12c-1.81,2-3.14,3.36-4,4.18s-1.48,1.22-1.87,1.22A.88.88,0,0,1,242.55,48.67Z"/><path class="cls-1" d="M254.38,48.79a.55.55,0,0,1-.2-.4,2.41,2.41,0,0,1,.16-.74q.15-.48.39-1.11l2.21-5.76a1.27,1.27,0,0,0,.1-.5c0-.23-.08-.34-.24-.34a2.41,2.41,0,0,0-.64.09,1.85,1.85,0,0,0-.51.18.4.4,0,0,1-.2,0q-.21,0-.21-.24a.77.77,0,0,1,.18-.43,2,2,0,0,1,.49-.45,2.44,2.44,0,0,1,1.51-.51c.64,0,1,.27,1,.79a5.62,5.62,0,0,1-.48,1.73l-1.08,2.71,0,.1a.13.13,0,0,0,.13.14.14.14,0,0,0,.18-.09A22,22,0,0,1,260,40c.95-1,1.7-1.53,2.26-1.53a1,1,0,0,1,.86.34,1.32,1.32,0,0,1,.27.86A2.57,2.57,0,0,1,263,41q-.36.63-.84.63c-.25,0-.38-.28-.38-.84s-.15-.77-.46-.77-.91.46-1.63,1.39c-.38.5-.93,1.3-1.64,2.4s-1.31,2.08-1.79,2.93c0,.05-.21.37-.53,1a9,9,0,0,1-.58,1,.49.49,0,0,1-.38.27A.62.62,0,0,1,254.38,48.79Z"/><path class="cls-1" d="M261.72,48.56a1,1,0,0,1-.39-.72,6.15,6.15,0,0,1,1.26-3.17,18.49,18.49,0,0,1,3.3-3.67c1.71-1.51,2.82-2.26,3.31-2.26a.87.87,0,0,1,.68.34,2.55,2.55,0,0,0,.31.41l.12-.2c.32-.54.45-.78.41-.72.09-.16.19-.24.28-.24a1.24,1.24,0,0,1,.63.17c.19.11.29.23.29.34a2.9,2.9,0,0,1-.17.6l-2.69,7.13a1.07,1.07,0,0,0-.1.4.36.36,0,0,0,.41.41,2,2,0,0,0,1.05-.42,4.66,4.66,0,0,0,1.06-1,.24.24,0,0,1,.22-.12c.11,0,.17.09.17.27a1.63,1.63,0,0,1-.34.66,5,5,0,0,1-2,1.81,3,3,0,0,1-1.26.33,1,1,0,0,1-.71-.3.88.88,0,0,1-.32-.63,1.28,1.28,0,0,1,.14-.55q-.13.26.06-.21c.14-.31.31-.68.51-1.1l.56-1.21a.89.89,0,0,0,.11-.4c0-.09-.06-.08-.16,0a25.36,25.36,0,0,1-3.48,3.4,4.09,4.09,0,0,1-2.37,1A1.24,1.24,0,0,1,261.72,48.56Zm3.76-2.05a19.27,19.27,0,0,0,2.36-2.44,15.25,15.25,0,0,0,1.44-1.94,3.1,3.1,0,0,0,.52-1.32c0-.13-.1-.28-.31-.46a1.07,1.07,0,0,0-.6-.26,2.65,2.65,0,0,0-1.19.43,7.29,7.29,0,0,0-1.38,1,15.11,15.11,0,0,0-2.17,2.7,5,5,0,0,0-.95,2.32.85.85,0,0,0,.2.58.59.59,0,0,0,.5.23A3.08,3.08,0,0,0,265.48,46.51Z"/><path class="cls-1" d="M278.82,48.77a2.28,2.28,0,0,1-.62-.88l-.91-2.55a2.14,2.14,0,0,0-.45-.75.88.88,0,0,0-.65-.3c-.14,0-.36.33-.65,1q-.24.59-.57,1.44c-.23.58-.41,1.06-.56,1.44a3.29,3.29,0,0,1-.26.62.45.45,0,0,1-.36.13.69.69,0,0,1-.41-.17.48.48,0,0,1-.22-.36,3.82,3.82,0,0,1,.2-1l4-12.43a4.5,4.5,0,0,0,.24-1.37c0-.19-.17-.35-.52-.48s-.63-.27-.63-.33a.27.27,0,0,1,.15-.27,12.9,12.9,0,0,1,1.49-.57,5.22,5.22,0,0,1,1.22-.32c.25,0,.38.08.38.24a1.78,1.78,0,0,1-.07.56l-3.24,9.86a.44.44,0,0,0,0,.17c0,.05,0,.07,0,.07a.23.23,0,0,0,.2-.14,11.63,11.63,0,0,1,2.67-2.74,4.69,4.69,0,0,1,2.66-1,1.68,1.68,0,0,1,1,.29.89.89,0,0,1,.43.79,2.64,2.64,0,0,1-.84,1.71,9.32,9.32,0,0,1-2,1.67,7.79,7.79,0,0,1-2,1,.28.28,0,0,0-.14.09s0,.09,0,.17l1.11,2.62a1.39,1.39,0,0,0,.34.49.66.66,0,0,0,.45.2,1.33,1.33,0,0,0,.87-.41,4.65,4.65,0,0,0,.81-1,1,1,0,0,1,.2-.25.32.32,0,0,1,.18-.06s.07,0,.1.09a.49.49,0,0,1,.05.2,2,2,0,0,1-.52,1.15,6.59,6.59,0,0,1-1.17,1.19,2,2,0,0,1-1,.51A1.32,1.32,0,0,1,278.82,48.77Zm.36-5.67a7,7,0,0,0,1.76-1.38,2.23,2.23,0,0,0,.72-1.32c0-.51-.29-.77-.86-.77a2.7,2.7,0,0,0-1.54.74A10.66,10.66,0,0,0,277.63,42a2.85,2.85,0,0,0-.72,1.25.54.54,0,0,0,.07.29.24.24,0,0,0,.22.12A4.1,4.1,0,0,0,279.18,43.1Z"/><path class="cls-1" d="M283.94,48.56a1,1,0,0,1-.38-.72,6.15,6.15,0,0,1,1.26-3.17,18.49,18.49,0,0,1,3.3-3.67c1.71-1.51,2.81-2.26,3.31-2.26a.85.85,0,0,1,.67.34,3.56,3.56,0,0,0,.31.41l.12-.2a5.53,5.53,0,0,0,.41-.72c.1-.16.19-.24.29-.24a1.23,1.23,0,0,1,.62.17c.19.11.29.23.29.34a2.9,2.9,0,0,1-.17.6l-2.69,7.13a1,1,0,0,0-.09.4.36.36,0,0,0,.41.41,2,2,0,0,0,1-.42,4.7,4.7,0,0,0,1.07-1,.24.24,0,0,1,.21-.12c.12,0,.17.09.17.27a1.7,1.7,0,0,1-.33.66,6.9,6.9,0,0,1-.7.85,6.06,6.06,0,0,1-1.36,1,2.89,2.89,0,0,1-1.26.33,1,1,0,0,1-.7-.3.86.86,0,0,1-.33-.63,1.17,1.17,0,0,1,.15-.55q-.15.26.06-.21c.13-.31.3-.68.5-1.1s.39-.83.56-1.21a.89.89,0,0,0,.11-.4c0-.09-.06-.08-.15,0a26.56,26.56,0,0,1-3.48,3.4,4.14,4.14,0,0,1-2.38,1A1.28,1.28,0,0,1,283.94,48.56Zm3.77-2.05a19.28,19.28,0,0,0,2.35-2.44,13.54,13.54,0,0,0,1.44-1.94,3.16,3.16,0,0,0,.53-1.32c0-.13-.11-.28-.31-.46a1.07,1.07,0,0,0-.6-.26,2.61,2.61,0,0,0-1.19.43,6.71,6.71,0,0,0-1.38,1,14.68,14.68,0,0,0-2.17,2.7,4.86,4.86,0,0,0-.95,2.32.85.85,0,0,0,.19.58.61.61,0,0,0,.5.23A3.1,3.1,0,0,0,287.71,46.51Z"/><path class="cls-1" d="M296.5,48.73a1.08,1.08,0,0,1-.13-.48,10.78,10.78,0,0,1,.55-1.71l2.21-5.78a1.58,1.58,0,0,0,.05-.29.44.44,0,0,0-.12-.32.42.42,0,0,0-.33-.14,1.67,1.67,0,0,0-.82.21,3,3,0,0,0-.91.9.25.25,0,0,1-.2.09c-.09,0-.15-.06-.16-.19a1.58,1.58,0,0,1,.1-.61,1.89,1.89,0,0,1,.3-.59,3.06,3.06,0,0,1,2.38-1.2,1.64,1.64,0,0,1,.84.21.66.66,0,0,1,.36.63,1.06,1.06,0,0,1-.1.46l-1.36,3.55,0,.1c0,.06,0,.09.1.09a.15.15,0,0,0,.14-.09c2.15-3.3,4-5,5.45-5a1.4,1.4,0,0,1,1,.37,1.36,1.36,0,0,1,.4,1A2.8,2.8,0,0,1,306,41l-.86,2.52,0,.1c0,.06,0,.09.1.09a.15.15,0,0,0,.14-.09,16.22,16.22,0,0,1,2.92-3.69,4.16,4.16,0,0,1,2.63-1.26,1.29,1.29,0,0,1,.92.37,1.45,1.45,0,0,1,.37,1.07,3.18,3.18,0,0,1-.24,1.11l-2.06,5.32a1.81,1.81,0,0,0-.15.58c0,.19.09.29.27.29.48,0,1.37-.65,2.66-2l.07,0a.2.2,0,0,1,.14.06.21.21,0,0,1,.06.16,1.3,1.3,0,0,1-.44.86,10.48,10.48,0,0,1-1.9,1.76,3.45,3.45,0,0,1-2,.66.71.71,0,0,1-.52-.26.85.85,0,0,1-.25-.6.64.64,0,0,1,.05-.24l2.78-7.18a1.14,1.14,0,0,0,.07-.38.57.57,0,0,0-.57-.6,2,2,0,0,0-1.07.44,7,7,0,0,0-1.38,1.36,27.21,27.21,0,0,0-1.67,2.36c-.71,1.1-1.3,2.06-1.76,2.9a8.92,8.92,0,0,1-1.11,1.7c-.33.38-.6.58-.79.58a.37.37,0,0,1-.3-.21.76.76,0,0,1-.13-.44,8.67,8.67,0,0,1,.55-1.78l2.23-6a1.14,1.14,0,0,0,.07-.38.51.51,0,0,0-.22-.46.87.87,0,0,0-.4-.14,1.88,1.88,0,0,0-1,.47,7.46,7.46,0,0,0-1.36,1.35,28.53,28.53,0,0,0-1.66,2.37q-1.08,1.66-1.77,2.94l-.24.45q-.58,1.06-.84,1.44t-.51.39Q296.64,49,296.5,48.73Z"/><path class="cls-1" d="M314.86,48.64a.75.75,0,0,1-.27-.56.88.88,0,0,1,.07-.39q1-2.09,2.35-5.52c.15-.43.31-.87.51-1.32a.46.46,0,0,0,0-.14.12.12,0,0,0-.14-.14,2.47,2.47,0,0,0-.84.3,6.08,6.08,0,0,0-1,.61.22.22,0,0,1-.16.05c-.15,0-.22-.05-.22-.15s.16-.4.49-.72a9.25,9.25,0,0,1,1.33-1,12,12,0,0,1,1.8-1,.4.4,0,0,1,.42,0,.89.89,0,0,1,.36.36.44.44,0,0,1,.09.35l-2.93,6.94a1.67,1.67,0,0,0-.17.69c0,.19.13.29.39.29a1.77,1.77,0,0,0,1-.5c.39-.34.93-.85,1.62-1.54a.14.14,0,0,1,.09-.05q.15,0,.15.12A2.42,2.42,0,0,1,319,46.7a9.16,9.16,0,0,1-1.79,1.52,3.31,3.31,0,0,1-1.72.67A1,1,0,0,1,314.86,48.64ZM319.77,36a1,1,0,0,1-.24-.65,1.49,1.49,0,0,1,.39-1,1.21,1.21,0,0,1,1-.43.68.68,0,0,1,.58.31,1.15,1.15,0,0,1,.23.72,1.34,1.34,0,0,1-.39,1,1.28,1.28,0,0,1-.93.41A.76.76,0,0,1,319.77,36Z"/><path class="cls-1" d="M322.65,37.93c-.19,0-.29,0-.29-.15s0-.09.11-.14a1.36,1.36,0,0,1,.24-.13,2,2,0,0,0,.25-.14,4.88,4.88,0,0,0,1.62-1.24,2.28,2.28,0,0,0,.57-1.44.73.73,0,0,0-.21-.56,2.47,2.47,0,0,0-.56-.36,2.09,2.09,0,0,1-.54-.37.66.66,0,0,1-.18-.49.81.81,0,0,1,.41-.68A1.53,1.53,0,0,1,325,32a1.57,1.57,0,0,1,1.14.43,1.66,1.66,0,0,1,.44,1.25,4,4,0,0,1-.61,2.12,4.91,4.91,0,0,1-1.51,1.59,3.1,3.1,0,0,1-1.64.59Z"/><path class="cls-1" d="M324.18,48.59a.93.93,0,0,1-.38-.75A1.32,1.32,0,0,1,324,47a.6.6,0,0,1,.45-.3.61.61,0,0,1,.34.15,3.9,3.9,0,0,1,.4.31,3.16,3.16,0,0,0,.65.41,2,2,0,0,0,.79.14,1.31,1.31,0,0,0,1-.44,1.65,1.65,0,0,0,.42-1,4.87,4.87,0,0,0-.7-2.35,4.52,4.52,0,0,1-.72-2,2.64,2.64,0,0,1,.59-1.63,4.73,4.73,0,0,1,1.37-1.24,2.68,2.68,0,0,1,1.24-.47,1.43,1.43,0,0,1,.88.36c.31.24.46.45.46.63a1,1,0,0,1-.3.55.8.8,0,0,1-.52.33.45.45,0,0,1-.3-.16l-.2-.22a1.2,1.2,0,0,0-.89-.38.85.85,0,0,0-.68.33,1.27,1.27,0,0,0-.28.84,3.82,3.82,0,0,0,.25,1,9.43,9.43,0,0,0,.54,1.22,6.22,6.22,0,0,1,.51,1.26,4.64,4.64,0,0,1,.21,1.24,2.41,2.41,0,0,1-.69,1.66,4.9,4.9,0,0,1-1.74,1.19,5.26,5.26,0,0,1-2,.43A1.39,1.39,0,0,1,324.18,48.59Z"/><path class="cls-1" d="M336,48.41c0-.19.29-.33.87-.43a3.2,3.2,0,0,0,1.42-.57,2.45,2.45,0,0,0,.78-1.25l3.22-10.51a4.51,4.51,0,0,0,.26-1.18.59.59,0,0,0-.36-.59,5.19,5.19,0,0,0-1.36-.25,1.32,1.32,0,0,1-.52-.12.32.32,0,0,1-.16-.29c0-.11.08-.19.24-.25a1.69,1.69,0,0,1,.58-.08l2.14,0c.36,0,.88,0,1.56,0l1.1,0a6,6,0,0,1,3.37.89,3,3,0,0,1,1.36,2.66,4,4,0,0,1-1.19,3,7.19,7.19,0,0,1-3,1.72c-.23.08-.3.22-.22.41.16.4.48,1.12,1,2.17s.88,1.9,1.2,2.56a3.72,3.72,0,0,0,.88,1.22,2.71,2.71,0,0,0,1.16.48,5.24,5.24,0,0,1,.64.13q.18.06.18.21c0,.16-.11.26-.33.32a3.53,3.53,0,0,1-.9.08,7.68,7.68,0,0,1-1.85-.18,1.48,1.48,0,0,1-1-.68c-.37-.62-.78-1.44-1.25-2.44s-.87-1.92-1.22-2.77a2.43,2.43,0,0,0-.57-.95,1.42,1.42,0,0,0-.9-.22,1.88,1.88,0,0,0-.69.08.5.5,0,0,0-.27.35l-1.27,4a3.07,3.07,0,0,0-.17.94,1.12,1.12,0,0,0,1,1.15,1.34,1.34,0,0,1,.46.17.3.3,0,0,1,.14.26q0,.27-.72.27a7.23,7.23,0,0,1-1.28-.1,4.47,4.47,0,0,0-.86-.07,7.81,7.81,0,0,0-.83,0l-.61,0a13.5,13.5,0,0,1-1.51.1C336.16,48.68,336,48.59,336,48.41Zm9.91-7.93A4.49,4.49,0,0,0,347.7,39a4.26,4.26,0,0,0,.78-2.65,2.85,2.85,0,0,0-.84-2.08,2.81,2.81,0,0,0-2.09-.85.9.9,0,0,0-.79.35,4.79,4.79,0,0,0-.58,1.45L342.91,40a1.24,1.24,0,0,0-.07.39.4.4,0,0,0,.26.42,2.73,2.73,0,0,0,.91.11A4.7,4.7,0,0,0,345.88,40.48Z"/><path class="cls-1" d="M353.91,48.53a3.07,3.07,0,0,1-.85-1,2.33,2.33,0,0,1-.34-1.14A8.17,8.17,0,0,1,353.6,43a9.2,9.2,0,0,1,2.33-3.08A4.66,4.66,0,0,1,359,38.62a2.19,2.19,0,0,1,1.31.35,1.14,1.14,0,0,1,.46,1,2.35,2.35,0,0,1-1.51,2.14,14.87,14.87,0,0,1-4,1.22l-.12,0a.35.35,0,0,0-.15.07.28.28,0,0,0-.09.14,7.81,7.81,0,0,0-.5,2.33,2.29,2.29,0,0,0,.32,1.3,1.1,1.1,0,0,0,.95.45,2.46,2.46,0,0,0,1.34-.36,5.28,5.28,0,0,0,1.11-.93.64.64,0,0,1,.43-.27.21.21,0,0,1,.24.24.33.33,0,0,1-.05.19,5.37,5.37,0,0,1-1.7,1.8,3.9,3.9,0,0,1-2.14.63A1.72,1.72,0,0,1,353.91,48.53Zm3-6.1a5.66,5.66,0,0,0,1.72-1,1.88,1.88,0,0,0,.75-1.49.84.84,0,0,0-.18-.54.57.57,0,0,0-.47-.23,2.37,2.37,0,0,0-1.4.67,8.51,8.51,0,0,0-1.42,1.52,2.71,2.71,0,0,0-.61,1.2.14.14,0,0,0,0,.12l.12,0A5.2,5.2,0,0,0,356.9,42.43Z"/><path class="cls-1" d="M362,48.59a2.53,2.53,0,0,1-.8-.88,2.67,2.67,0,0,1-.31-1.26,8.88,8.88,0,0,1,.76-3.4,8.64,8.64,0,0,1,2.17-3.13,4.76,4.76,0,0,1,3.34-1.3,1.78,1.78,0,0,1,1,.23.65.65,0,0,1,.35.54,1.46,1.46,0,0,1-.24.79q-.24.39-.48.39a.35.35,0,0,1-.29-.15,2.83,2.83,0,0,1-.29-.43,1.58,1.58,0,0,0-.4-.53.85.85,0,0,0-.58-.19c-.5,0-1,.39-1.59,1.16a10.93,10.93,0,0,0-1.41,2.82,9,9,0,0,0-.58,3,1.5,1.5,0,0,0,.3,1,1.11,1.11,0,0,0,.85.31,2.24,2.24,0,0,0,1.12-.24,5.91,5.91,0,0,0,1-.79l.13-.13a.63.63,0,0,1,.18-.14.31.31,0,0,1,.17,0c.13,0,.19.1.19.31a1.65,1.65,0,0,1-.55.88,5.43,5.43,0,0,1-1.39,1,3.53,3.53,0,0,1-1.73.46A1.59,1.59,0,0,1,362,48.59Z"/><path class="cls-1" d="M369.25,48.53a3,3,0,0,1-.85-1,2.23,2.23,0,0,1-.34-1.14,8,8,0,0,1,.88-3.47,9.31,9.31,0,0,1,2.32-3.08,4.66,4.66,0,0,1,3.06-1.25,2.17,2.17,0,0,1,1.31.35,1.15,1.15,0,0,1,.47,1,2.35,2.35,0,0,1-1.51,2.14,14.87,14.87,0,0,1-4,1.22l-.12,0a.34.34,0,0,0-.16.07.22.22,0,0,0-.08.14,7.57,7.57,0,0,0-.51,2.33,2.21,2.21,0,0,0,.33,1.3,1.09,1.09,0,0,0,1,.45,2.46,2.46,0,0,0,1.34-.36,5.49,5.49,0,0,0,1.1-.93.65.65,0,0,1,.44-.27.22.22,0,0,1,.24.24.33.33,0,0,1-.05.19,5.3,5.3,0,0,1-1.71,1.8,3.85,3.85,0,0,1-2.13.63A1.68,1.68,0,0,1,369.25,48.53Zm3-6.1a5.49,5.49,0,0,0,1.71-1,1.87,1.87,0,0,0,.76-1.49.84.84,0,0,0-.18-.54.58.58,0,0,0-.47-.23,2.37,2.37,0,0,0-1.4.67,8.51,8.51,0,0,0-1.42,1.52,2.6,2.6,0,0,0-.61,1.2c0,.06,0,.1.05.12l.12,0A5.2,5.2,0,0,0,372.24,42.43Z"/><path class="cls-1" d="M373,55.21c0-.12.09-.22.24-.3a1.62,1.62,0,0,1,.49-.18,2.35,2.35,0,0,0,.82-.28,1,1,0,0,0,.42-.61l4.64-12.94a2.22,2.22,0,0,0,.14-.57c0-.16-.14-.22-.41-.17a8.21,8.21,0,0,0-1,.21,7.34,7.34,0,0,0-.9.34.42.42,0,0,1-.22,0c-.19,0-.28-.07-.28-.22a.54.54,0,0,1,.36-.5A13,13,0,0,1,380,38.93a.51.51,0,0,0,.43-.38,7.36,7.36,0,0,1,.65-1.68.91.91,0,0,1,.79-.46.5.5,0,0,1,.35.12.32.32,0,0,1,.08.34l-.4,1.39-.05.22c0,.17.05.25.17.21a6.57,6.57,0,0,1,1.05-.09q3.12,0,3.12,3a6.85,6.85,0,0,1-.92,3.24,9.23,9.23,0,0,1-2.39,2.89,4.74,4.74,0,0,1-3,1.16,2.36,2.36,0,0,1-1-.43.43.43,0,0,0-.26-.09c-.13,0-.26.17-.39.52l-1.58,4.68a1,1,0,0,0-.07.36c0,.42.35.65,1.05.7a1.91,1.91,0,0,1,.51.11.27.27,0,0,1,.21.25c0,.18-.23.26-.69.26l-1.44,0c-.28,0-.46,0-.55,0a18.77,18.77,0,0,1-2.38.17Q373,55.42,373,55.21ZM382.06,47a9.45,9.45,0,0,0,1.67-2.52,6.44,6.44,0,0,0,.7-2.7A2.74,2.74,0,0,0,384,40a1.81,1.81,0,0,0-1.37-.52,7.36,7.36,0,0,0-.91,0L379.48,46a3.17,3.17,0,0,0-.14.89,2,2,0,0,0,.07.55.91.91,0,0,0,1,.63A2.62,2.62,0,0,0,382.06,47Z"/><path class="cls-1" d="M387.33,48.58A.88.88,0,0,1,387,48a2.31,2.31,0,0,1,.15-.83c.09-.27.16-.44.19-.52l2.28-6.41,0-.09c0-.13-.08-.19-.26-.19l-1,0c-.29,0-.43-.13-.43-.34,0-.06.09-.17.26-.33a.82.82,0,0,1,.55-.24h.87a.62.62,0,0,0,.35-.08.76.76,0,0,0,.22-.36l.58-1.17a2.46,2.46,0,0,1,.63-.69,1.41,1.41,0,0,1,.67-.39.22.22,0,0,1,.19.12.57.57,0,0,1,.07.31.74.74,0,0,1-.07.34l-.63,1.6,0,.1a.13.13,0,0,0,.08.13.59.59,0,0,0,.26,0,11.44,11.44,0,0,1,1.8.19,1.56,1.56,0,0,1,.45.14.25.25,0,0,1,.1.22c0,.05,0,.1-.11.17a.68.68,0,0,1-.35.12l-2,.12q-.63,0-.75.36L389,46.18a1.4,1.4,0,0,0-.1.51c0,.3.18.45.53.45a1.68,1.68,0,0,0,.95-.38,13.89,13.89,0,0,0,1.11-1,.67.67,0,0,1,.46-.24c.13,0,.19,0,.19.17a1.35,1.35,0,0,1-.43.79,9.85,9.85,0,0,1-2.05,1.67,4,4,0,0,1-1.67.7A1,1,0,0,1,387.33,48.58Z"/><path class="cls-1" d="M394.37,48.64a.75.75,0,0,1-.27-.56.88.88,0,0,1,.07-.39q1-2.09,2.35-5.52c.15-.43.31-.87.51-1.32a.46.46,0,0,0,0-.14.12.12,0,0,0-.14-.14,2.47,2.47,0,0,0-.84.3,6.08,6.08,0,0,0-1,.61.22.22,0,0,1-.16.05c-.15,0-.22-.05-.22-.15s.16-.4.49-.72a9.25,9.25,0,0,1,1.33-1,12,12,0,0,1,1.8-1,.4.4,0,0,1,.42,0,.89.89,0,0,1,.36.36.44.44,0,0,1,.09.35l-2.93,6.94A1.67,1.67,0,0,0,396,47c0,.19.13.29.39.29a1.77,1.77,0,0,0,1-.5c.39-.34.93-.85,1.62-1.54a.14.14,0,0,1,.09-.05q.15,0,.15.12a2.42,2.42,0,0,1-.77,1.36,9.16,9.16,0,0,1-1.79,1.52,3.31,3.31,0,0,1-1.72.67A1,1,0,0,1,394.37,48.64ZM399.28,36a1,1,0,0,1-.24-.65,1.49,1.49,0,0,1,.39-1,1.21,1.21,0,0,1,1-.43.68.68,0,0,1,.58.31,1.15,1.15,0,0,1,.23.72,1.34,1.34,0,0,1-.39,1,1.28,1.28,0,0,1-.93.41A.76.76,0,0,1,399.28,36Z"/><path class="cls-1" d="M401.09,48.07a3,3,0,0,1-.65-1.89,8.21,8.21,0,0,1,.79-3.32,8.76,8.76,0,0,1,2.12-3,4.15,4.15,0,0,1,2.84-1.23,2.27,2.27,0,0,1,1.85.81,3,3,0,0,1,.67,2,8.24,8.24,0,0,1-.77,3.27,8.41,8.41,0,0,1-2.19,3,4.67,4.67,0,0,1-3.13,1.21A1.92,1.92,0,0,1,401.09,48.07Zm3.81-1.16a11.1,11.1,0,0,0,1.63-3,9.26,9.26,0,0,0,.65-3.11,2.1,2.1,0,0,0-.23-1.07.88.88,0,0,0-.8-.37,2.65,2.65,0,0,0-1.88,1.17,9.92,9.92,0,0,0-1.64,2.9,9.25,9.25,0,0,0-.66,3.28c0,1,.34,1.48,1,1.48A2.64,2.64,0,0,0,404.9,46.91Z"/><path class="cls-1" d="M410.21,48.67a1,1,0,0,1-.2-.57.76.76,0,0,1,.05-.21l2.78-6.82a2.37,2.37,0,0,0,.24-.84c0-.14-.06-.22-.19-.22a1.79,1.79,0,0,0-.85.22,3.36,3.36,0,0,0-.93.89.22.22,0,0,1-.19.09c-.09,0-.15-.06-.17-.19a1.29,1.29,0,0,1,.15-.56,3.47,3.47,0,0,1,.36-.64,2.48,2.48,0,0,1,1-.86,3.41,3.41,0,0,1,1.42-.34.87.87,0,0,1,.59.22.71.71,0,0,1,.25.55,1.38,1.38,0,0,1-.05.26l-1.58,4.08,0,.1a.09.09,0,0,0,.1.1.16.16,0,0,0,.14-.1,16.21,16.21,0,0,1,3-3.83,4.3,4.3,0,0,1,2.65-1.38,1.29,1.29,0,0,1,1,.43,1.64,1.64,0,0,1,.4,1.13,2.71,2.71,0,0,1-.24,1.08l-2.21,5.23a1.81,1.81,0,0,0-.15.58c0,.19.09.29.27.29a3,3,0,0,0,1.44-.64,9.61,9.61,0,0,0,1.29-1,.1.1,0,0,1,.08,0,.19.19,0,0,1,.13.06.21.21,0,0,1,.06.16.52.52,0,0,1-.1.33,9,9,0,0,1-2.11,1.92,4.1,4.1,0,0,1-2.21.72.78.78,0,0,1-.54-.24.73.73,0,0,1-.25-.55.6.6,0,0,1,.05-.26l.48-1.08c.16-.35.48-1.09,1-2.22s.92-2.17,1.28-3.11a3.68,3.68,0,0,0,.29-1.18c0-.41-.17-.62-.5-.62a1.9,1.9,0,0,0-1,.47,7.62,7.62,0,0,0-1.37,1.4c-.39.47-1,1.37-1.87,2.7s-1.68,2.67-2.43,4a2.4,2.4,0,0,1-.38.57.47.47,0,0,1-.36.17A.58.58,0,0,1,410.21,48.67Z"/><path class="cls-1" d="M153.24,77.38l-.3-.09-.33-.1-.48-.12a1.57,1.57,0,0,0-.33-.07.83.83,0,0,0-.53.31.33.33,0,0,1-.22.12.43.43,0,0,1-.23-.08.26.26,0,0,1-.1-.21,2.89,2.89,0,0,1,.07-.57,9.85,9.85,0,0,0,.09-1.16V63.77a2,2,0,0,0-.3-1.08,1.81,1.81,0,0,0-.8-.67c-.21-.11-.31-.23-.31-.36s.09-.21.29-.24A8.3,8.3,0,0,0,151,61c.56-.22,1-.39,1.28-.52a.46.46,0,0,1,.21-.07.12.12,0,0,1,.1.05.17.17,0,0,1,0,.12s0,.3,0,.78,0,1,0,1.74v4.92a2.61,2.61,0,0,0,.05.61.26.26,0,0,0,.17.18,6.17,6.17,0,0,1,1.73-1,4.69,4.69,0,0,1,1.77-.4,4,4,0,0,1,2.19.63,4.42,4.42,0,0,1,1.56,1.7,5.06,5.06,0,0,1,.57,2.4,6,6,0,0,1-.67,2.89,4.9,4.9,0,0,1-1.87,2,5.44,5.44,0,0,1-2.76.69A7.81,7.81,0,0,1,153.24,77.38ZM158,75.74a5.4,5.4,0,0,0,.81-3.06,5.51,5.51,0,0,0-.38-2,4,4,0,0,0-1.11-1.63,2.71,2.71,0,0,0-1.83-.65,4.15,4.15,0,0,0-2.93,1.1v4.66a2.4,2.4,0,0,0,1,2,3.63,3.63,0,0,0,2.3.77A2.46,2.46,0,0,0,158,75.74Z"/><path class="cls-1" d="M161.51,84a.83.83,0,0,1-.35-.75,1.31,1.31,0,0,1,.21-.76.69.69,0,0,1,.58-.32,2.54,2.54,0,0,1,.52.08,3.29,3.29,0,0,0,.44.07.51.51,0,0,0,.45-.27,15.6,15.6,0,0,0,1-1.83,26.32,26.32,0,0,0,1-2.44,1.68,1.68,0,0,0,.08-.55,2.21,2.21,0,0,0-.1-.7l-2.78-7a1.83,1.83,0,0,0-1.08-1.17,2.71,2.71,0,0,1-.42-.18.28.28,0,0,1-.13-.26c0-.14.15-.21.47-.21a4.42,4.42,0,0,1,.94.07,8,8,0,0,0,.82.05,8.21,8.21,0,0,0,.84-.05,5.05,5.05,0,0,1,1-.07.78.78,0,0,1,.33.07c.1.05.15.11.15.19a.37.37,0,0,1-.23.31,1.93,1.93,0,0,1-.46.22.63.63,0,0,0-.38.25,1,1,0,0,0-.11.52,2,2,0,0,0,.2.67l1.94,4.8c0,.1.08.14.14.14s.09,0,.13-.14l1.65-4.39a2.27,2.27,0,0,0,.13-.45,2.15,2.15,0,0,0,.06-.44,1.22,1.22,0,0,0-.12-.61.67.67,0,0,0-.36-.3c-.46-.21-.69-.4-.69-.58s0-.14.15-.19a.78.78,0,0,1,.33-.07,4.48,4.48,0,0,1,.55,0c.58,0,1,.07,1.15.07s.53,0,.91-.07a2.5,2.5,0,0,1,.51,0q.48,0,.48.21a.3.3,0,0,1-.13.26,3.23,3.23,0,0,1-.42.18,1.93,1.93,0,0,0-.77.57,3.59,3.59,0,0,0-.65,1l-3.27,7.78-.35.89q-1.5,3.6-1.95,4.65a1.62,1.62,0,0,1-.62.74,1.86,1.86,0,0,1-.94.25A1.49,1.49,0,0,1,161.51,84Z"/><path class="cls-1" d="M176.61,77.21a.3.3,0,0,1,.19-.26,2.65,2.65,0,0,1,.6-.17c.84-.14,1.33-.77,1.49-1.87a92,92,0,0,0,1-10.22,7.38,7.38,0,0,0,0-.8,1.73,1.73,0,0,0-.08-.44.74.74,0,0,0-.28-.35,2.23,2.23,0,0,0-.75-.45q-.37-.12-1.05-.27a.71.71,0,0,1-.38-.18.4.4,0,0,1-.15-.3q0-.16.21-.21a2.38,2.38,0,0,1,.61,0q.32,0,1.8.09c1,.07,1.59.1,1.8.1a.47.47,0,0,1,.46.38l.16.63c.15.57.27,1,.36,1.22l3.8,9.63a.29.29,0,0,0,.31.21.26.26,0,0,0,.24-.14l4.73-9.84c.19-.72.33-1.32.43-1.8.05-.21.13-.31.24-.31h.86c.24,0,.82,0,1.73-.12a9.07,9.07,0,0,1,1-.08c.33,0,.5.08.5.24a.31.31,0,0,1-.13.27,3.16,3.16,0,0,1-.49.24l-.58.21-.84.34a1.07,1.07,0,0,0-.42.34.81.81,0,0,0-.15.48c0,1.4,0,2.72.08,4s.14,2.67.25,4.32c.1,1.31.16,2.33.19,3.07a1.57,1.57,0,0,0,.46,1.14,2.74,2.74,0,0,0,1.34.56,2.37,2.37,0,0,1,.6.17.29.29,0,0,1,.2.26c0,.18-.24.27-.7.27s-1.1,0-1.54-.07-.93,0-1.27,0-.63,0-1.08,0a13,13,0,0,1-1.44.07q-.69,0-.69-.27c0-.22.26-.36.79-.43a1.31,1.31,0,0,0,1-.48,2.31,2.31,0,0,0,.26-1.25c0-1.63,0-3.14-.08-4.52s-.09-2.2-.11-2.46-.06-1-.1-1.85c0-.16-.06-.24-.14-.24s-.14.08-.24.24L186,77.48c0,.09-.09.14-.22.14s-.16-.05-.21-.17q-1.67-4.92-4.42-11.4a.17.17,0,0,0-.17-.12.13.13,0,0,0-.14.12q-.44,3.2-.6,4.92c-.11,1.16-.17,2.47-.17,3.94a1.88,1.88,0,0,0,1.56,1.87,2.65,2.65,0,0,1,.6.17.28.28,0,0,1,.19.26q0,.27-.69.27a11.44,11.44,0,0,1-1.37-.07,7.13,7.13,0,0,0-.89,0,6.68,6.68,0,0,0-.84,0c-.62,0-1.07.07-1.34.07C176.84,77.48,176.61,77.39,176.61,77.21Z"/><path class="cls-1" d="M199.24,77.37a2.81,2.81,0,0,1-.75-.82,1.75,1.75,0,0,1-.3-.92,1.7,1.7,0,0,1,.39-1.18,3.84,3.84,0,0,1,1.31-.81l2.45-1a1.32,1.32,0,0,0,.55-.34,1.23,1.23,0,0,0,.12-.62l.05-1.54A1.49,1.49,0,0,0,202.7,69a1.34,1.34,0,0,0-1-.44,2.28,2.28,0,0,0-.73.12,1.88,1.88,0,0,0-.6.31c-.16.11-.24.34-.24.7l0,.43c0,.13-.21.3-.61.51a2.28,2.28,0,0,1-1,.33.29.29,0,0,1-.19-.06.19.19,0,0,1-.07-.16,1.7,1.7,0,0,1,.25-.83,3.17,3.17,0,0,1,.71-.82,7.22,7.22,0,0,1,1.84-1.23,4.25,4.25,0,0,1,1.74-.48,1.87,1.87,0,0,1,1.42.61,2.06,2.06,0,0,1,.54,1.53l-.11,5.76a1.16,1.16,0,0,0,.21.81.78.78,0,0,0,.65.32,1.28,1.28,0,0,0,.89-.27c.08-.08.14-.12.19-.12a.29.29,0,0,1,.19.07.27.27,0,0,1,.07.2.63.63,0,0,1-.07.25,1,1,0,0,1-.19.27,3.46,3.46,0,0,1-.83.62,1.84,1.84,0,0,1-.83.22,2,2,0,0,1-1.75-1.24h-.07a6.25,6.25,0,0,1-1.51.94,3.85,3.85,0,0,1-1.49.3A1.51,1.51,0,0,1,199.24,77.37Zm3.41-1.4a1,1,0,0,0,.22-.36A2.36,2.36,0,0,0,203,75l0-1.17v-.15a.46.46,0,0,0,0-.27.16.16,0,0,0-.16-.09,1.62,1.62,0,0,0-.48.12,5.32,5.32,0,0,0-1.73.91,1.35,1.35,0,0,0-.53.94,1.27,1.27,0,0,0,.35.94,1.16,1.16,0,0,0,.83.33A1.92,1.92,0,0,0,202.65,76Z"/><path class="cls-1" d="M209.56,77a3.11,3.11,0,0,1-.64-2.12V69.27a.3.3,0,0,0-.16-.29,1.65,1.65,0,0,0-.61-.07H208c-.08,0-.14,0-.2-.14a.63.63,0,0,1-.08-.34.24.24,0,0,1,.06-.13l.1-.13A11,11,0,0,0,210,66.25a2,2,0,0,1,.19-.21.37.37,0,0,1,.22-.08c.22,0,.33.09.31.26l-.12,1.08v.1a.31.31,0,0,0,.14.29,1.18,1.18,0,0,0,.44.07h2.73c.07,0,.12,0,.17.15a.89.89,0,0,1,.07.38,1.23,1.23,0,0,1-.07.42c0,.13-.1.2-.17.2h-2.37a1.87,1.87,0,0,0-.81.1q-.15.09-.15.57v4.73a2.48,2.48,0,0,0,.4,1.52,1.4,1.4,0,0,0,1.18.54,5.07,5.07,0,0,0,1.07-.09,2,2,0,0,0,.71-.34l.09,0c.11,0,.17.12.17.34s-.14.27-.43.52a5.15,5.15,0,0,1-1.07.66,3.15,3.15,0,0,1-1.31.28A2.35,2.35,0,0,1,209.56,77Z"/><path class="cls-1" d="M217.1,77a3.11,3.11,0,0,1-.65-2.12V69.27a.3.3,0,0,0-.15-.29,1.72,1.72,0,0,0-.62-.07h-.14a.23.23,0,0,1-.2-.14.64.64,0,0,1-.09-.34.24.24,0,0,1,.06-.13.81.81,0,0,1,.11-.13,11.27,11.27,0,0,0,2.14-1.92,1.29,1.29,0,0,1,.19-.21A.32.32,0,0,1,218,66c.23,0,.33.09.32.26l-.12,1.08v.1a.29.29,0,0,0,.14.29,1.16,1.16,0,0,0,.43.07h2.74c.06,0,.12,0,.17.15a1.07,1.07,0,0,1,.07.38,1.54,1.54,0,0,1-.07.42c0,.13-.11.2-.17.2h-2.38a1.81,1.81,0,0,0-.8.1c-.11.06-.16.25-.16.57v4.73a2.48,2.48,0,0,0,.41,1.52,1.38,1.38,0,0,0,1.18.54,5,5,0,0,0,1.06-.09,2,2,0,0,0,.71-.34l.1,0c.11,0,.17.12.17.34s-.15.27-.44.52a4.82,4.82,0,0,1-1.06.66,3.18,3.18,0,0,1-1.31.28A2.33,2.33,0,0,1,217.1,77Z"/><path class="cls-1" d="M222.4,77.17a.24.24,0,0,1,.12-.22,2.53,2.53,0,0,1,.44-.17,2.13,2.13,0,0,0,.74-.35.79.79,0,0,0,.29-.63v-12c0-1-.35-1.6-1.06-1.72-.14,0-.21-.15-.21-.34a.28.28,0,0,1,.19-.29c1.26-.4,2.15-.71,2.66-.93a.29.29,0,0,1,.15-.05c.11,0,.16.05.16.17a6.51,6.51,0,0,1-.1.73,17,17,0,0,0-.11,2.53v4.18a3.57,3.57,0,0,0,0,.54,1.11,1.11,0,0,0,.14.34,6.43,6.43,0,0,1,3.64-1.51,2.43,2.43,0,0,1,2,.94,3.51,3.51,0,0,1,.78,2.33v5c0,.51.33.86,1,1a1.26,1.26,0,0,1,.42.16.25.25,0,0,1,.14.23c0,.17-.16.26-.48.26a5.76,5.76,0,0,1-1-.07c-.32,0-.61,0-.87,0s-.54,0-.86,0a5.54,5.54,0,0,1-1,.07c-.32,0-.48-.09-.48-.26a.22.22,0,0,1,.11-.21,3.59,3.59,0,0,1,.44-.18,1.75,1.75,0,0,0,.69-.38.88.88,0,0,0,.25-.67v-4.9a1.84,1.84,0,0,0-.34-1.07,2.48,2.48,0,0,0-.85-.79,2,2,0,0,0-1-.3,4.86,4.86,0,0,0-1.09.14,2.37,2.37,0,0,0-.9.39,1.63,1.63,0,0,0-.52.66,3.18,3.18,0,0,0-.13,1.07V75.8a.81.81,0,0,0,.26.63,1.91,1.91,0,0,0,.67.35,1.43,1.43,0,0,1,.4.16.25.25,0,0,1,.13.23.2.2,0,0,1-.11.2.8.8,0,0,1-.37.06,5.12,5.12,0,0,1-1-.07,8.21,8.21,0,0,0-.84,0c-.26,0-.56,0-.91,0a5.76,5.76,0,0,1-1,.07C222.56,77.43,222.4,77.34,222.4,77.17Z"/><path class="cls-1" d="M237.13,77.07a4.21,4.21,0,0,1-1.55-1.84,6.38,6.38,0,0,1-.55-2.74,5.23,5.23,0,0,1,.63-2.52,4.93,4.93,0,0,1,1.7-1.86,4.11,4.11,0,0,1,2.3-.69,3.37,3.37,0,0,1,2.36.85,2.84,2.84,0,0,1,.93,2.18.65.65,0,0,1-.72.74h-5.07a.52.52,0,0,0-.46.18,1.28,1.28,0,0,0-.14.71,4.51,4.51,0,0,0,.5,2.09,3.87,3.87,0,0,0,1.34,1.52,3.28,3.28,0,0,0,1.86.56,3,3,0,0,0,2.35-1.08c.1-.12.19-.19.27-.19s.19.08.19.24a1.74,1.74,0,0,1-.43,1,3.64,3.64,0,0,1-1.4,1.09,4.2,4.2,0,0,1-1.82.4A4.12,4.12,0,0,1,237.13,77.07Zm2.27-6.62a10.18,10.18,0,0,0,1.77-.12c.13,0,.19-.2.19-.53a1.47,1.47,0,0,0-.61-1.19,2.22,2.22,0,0,0-2.54-.17,3.06,3.06,0,0,0-.93.81,1.6,1.6,0,0,0-.36,1c0,.16.1.24.29.24Z"/><path class="cls-1" d="M248.92,77.74l-3.33-8.28a1.81,1.81,0,0,0-.52-.75,2,2,0,0,0-.73-.42,3.23,3.23,0,0,1-.42-.18.28.28,0,0,1-.13-.26q0-.21.48-.21a8.32,8.32,0,0,1,.86,0,6.54,6.54,0,0,0,.89.07,8.57,8.57,0,0,0,1-.07c.41,0,.74,0,1,0a1,1,0,0,1,.33,0c.1,0,.15.08.15.16a.28.28,0,0,1-.13.26,3.23,3.23,0,0,1-.42.18.6.6,0,0,0-.37.33,1.39,1.39,0,0,0-.13.63,1.75,1.75,0,0,0,.12.62l1.87,4.82a.11.11,0,0,0,.12.1.12.12,0,0,0,.12-.1l1.63-3.88a3,3,0,0,0,.19-1.16,1.09,1.09,0,0,0-.36-.82,2.33,2.33,0,0,0-.86-.54,3.23,3.23,0,0,1-.42-.18.28.28,0,0,1-.13-.26q0-.21.48-.21a4.54,4.54,0,0,1,.57,0c.63,0,1,.07,1.23.07l1.27-.07a6.8,6.8,0,0,1,.74,0q.48,0,.48.21a.28.28,0,0,1-.13.26,3.23,3.23,0,0,1-.42.18,1.68,1.68,0,0,0-.6.3.69.69,0,0,0-.22.56,2,2,0,0,0,.17.72l1.8,4.63c.08.18.15.27.19.27s.13-.08.2-.24l1.82-4.25a2.26,2.26,0,0,0,.17-.94,1,1,0,0,0-.27-.67,1.22,1.22,0,0,0-.57-.38,3.23,3.23,0,0,1-.42-.18.28.28,0,0,1-.13-.26q0-.21.48-.21a6.38,6.38,0,0,1,.79,0,6.52,6.52,0,0,0,1,.07,7.72,7.72,0,0,0,.88-.07,2.5,2.5,0,0,1,.51,0q.48,0,.48.21a.3.3,0,0,1-.13.26,3.23,3.23,0,0,1-.42.18,1.35,1.35,0,0,0-.68.54,5.37,5.37,0,0,0-.6,1l-3.28,7.87a.24.24,0,0,1-.22.17c-.06,0-.13-.06-.19-.17l-2.5-6.19c-.05-.13-.09-.2-.14-.22s-.11.08-.17.24l-2.62,6.17c0,.11-.11.17-.19.17S249,77.85,248.92,77.74Z"/><path class="cls-1" d="M278.29,77.57a3.19,3.19,0,0,1-1.41-1c-.73-.92-1.34-1.7-1.82-2.34s-1.09-1.58-1.82-2.78a2.42,2.42,0,0,0-1-.93,5.61,5.61,0,0,0-1.89-.51h-.05c-.21,0-.31.16-.31.48v4.23a1.83,1.83,0,0,0,1.61,2.06,2.65,2.65,0,0,1,.6.17.3.3,0,0,1,.19.26c0,.18-.23.27-.7.27a8.48,8.48,0,0,1-1.39-.1,5.69,5.69,0,0,0-1-.07,8.77,8.77,0,0,0-.88,0l-.63,0a15.12,15.12,0,0,1-1.61.1c-.46,0-.7-.09-.7-.27a.29.29,0,0,1,.2-.26,2.37,2.37,0,0,1,.6-.17,2.58,2.58,0,0,0,1.34-.56A1.72,1.72,0,0,0,268,75V64.73a7.67,7.67,0,0,0-.09-1.42.89.89,0,0,0-.38-.62,2.57,2.57,0,0,0-1-.26,1.11,1.11,0,0,1-.58-.17.39.39,0,0,1-.21-.31c0-.18.23-.26.7-.26.69,0,1.13,0,1.34,0h1c.24,0,.6,0,1.08-.05.86,0,1.42-.07,1.68-.07a6.78,6.78,0,0,1,4,1A3.38,3.38,0,0,1,277,65.53c0,1.72-.94,3.07-2.83,4,0,0-.07,0-.07.12a.37.37,0,0,0,.07.19c1,1.52,1.82,2.69,2.43,3.5A19.56,19.56,0,0,0,279,76a2.76,2.76,0,0,0,1.18.64,6.69,6.69,0,0,0,1.58.15c.24,0,.36.09.36.26s-.21.52-.64.65a4.4,4.4,0,0,1-1.3.19A5.44,5.44,0,0,1,278.29,77.57ZM273.1,69a3.35,3.35,0,0,0,1.28-1.31,3.67,3.67,0,0,0,.44-1.75,4.28,4.28,0,0,0-.72-2.65,3.39,3.39,0,0,0-2.81-.95,1,1,0,0,0-1,.47,4.44,4.44,0,0,0-.3,1.76c0,1.09-.05,2.45-.05,4.08,0,.37.09.6.29.7a2.5,2.5,0,0,0,1,.14A3.59,3.59,0,0,0,273.1,69Z"/><path class="cls-1" d="M282.6,77.17a.23.23,0,0,1,.13-.24,1.93,1.93,0,0,1,.42-.15,2.23,2.23,0,0,0,.79-.32.69.69,0,0,0,.24-.59V70.66c0-1-.36-1.64-1.08-1.75-.16,0-.24-.12-.24-.31s.07-.27.22-.29a6,6,0,0,0,2.52-1.2.64.64,0,0,1,.33-.17q.15,0,.15.12c0,.18,0,.48-.08.91,0,.2,0,.55-.08,1.07s-.06.94-.06,1.26v5.57a.68.68,0,0,0,.25.58,2.42,2.42,0,0,0,.78.33,1.93,1.93,0,0,1,.42.15.23.23,0,0,1,.13.24c0,.17-.16.26-.48.26a5.64,5.64,0,0,1-1-.07c-.36,0-.67,0-.94,0s-.56,0-.91,0a5.71,5.71,0,0,1-1,.07C282.76,77.43,282.6,77.34,282.6,77.17Zm1.54-12.54A1.27,1.27,0,1,1,285,65,1.18,1.18,0,0,1,284.14,64.63Z"/><path class="cls-1" d="M290.84,77.11a4.38,4.38,0,0,1-1.54-1.68,5.13,5.13,0,0,1-.56-2.39,5.94,5.94,0,0,1,.68-2.82,5.42,5.42,0,0,1,1.84-2,4.51,4.51,0,0,1,2.54-.76,4.59,4.59,0,0,1,2.74.84.62.62,0,0,1,.29.46.94.94,0,0,1-.36.65,1.05,1.05,0,0,1-.67.33.46.46,0,0,1-.24-.08l-.27-.18a8.71,8.71,0,0,0-1.22-.79,2.27,2.27,0,0,0-1-.34,2.21,2.21,0,0,0-1.91,1.1,5.08,5.08,0,0,0-.73,2.86,4.34,4.34,0,0,0,.48,2,3.7,3.7,0,0,0,1.32,1.45,3.4,3.4,0,0,0,1.84.53,2.89,2.89,0,0,0,1.2-.23,3.74,3.74,0,0,0,1.08-.8.35.35,0,0,1,.24-.12.25.25,0,0,1,.2.09.48.48,0,0,1,.07.24,1.45,1.45,0,0,1-.36.75A3.64,3.64,0,0,1,295,77.33a4.87,4.87,0,0,1-2,.39A4.06,4.06,0,0,1,290.84,77.11Z"/><path class="cls-1" d="M298.12,77.17a.24.24,0,0,1,.12-.22,2.53,2.53,0,0,1,.44-.17,2.13,2.13,0,0,0,.74-.35.79.79,0,0,0,.29-.63v-12c0-1-.35-1.6-1.06-1.72-.14,0-.21-.15-.21-.34a.28.28,0,0,1,.19-.29c1.26-.4,2.15-.71,2.66-.93a.29.29,0,0,1,.15-.05c.11,0,.16.05.16.17a6.51,6.51,0,0,1-.1.73,17,17,0,0,0-.11,2.53v4.18a3.57,3.57,0,0,0,0,.54,1.11,1.11,0,0,0,.14.34,6.43,6.43,0,0,1,3.64-1.51,2.43,2.43,0,0,1,2,.94,3.51,3.51,0,0,1,.78,2.33v5c0,.51.33.86,1,1a1.26,1.26,0,0,1,.42.16.25.25,0,0,1,.14.23c0,.17-.16.26-.48.26a5.76,5.76,0,0,1-1-.07c-.32,0-.61,0-.87,0s-.54,0-.86,0a5.54,5.54,0,0,1-1,.07c-.32,0-.48-.09-.48-.26a.22.22,0,0,1,.11-.21,3.59,3.59,0,0,1,.44-.18,1.75,1.75,0,0,0,.69-.38.88.88,0,0,0,.25-.67v-4.9a1.84,1.84,0,0,0-.34-1.07,2.48,2.48,0,0,0-.85-.79,2,2,0,0,0-1-.3,4.86,4.86,0,0,0-1.09.14,2.37,2.37,0,0,0-.9.39,1.63,1.63,0,0,0-.52.66,3.18,3.18,0,0,0-.13,1.07V75.8a.81.81,0,0,0,.26.63,1.91,1.91,0,0,0,.67.35,1.43,1.43,0,0,1,.4.16.25.25,0,0,1,.13.23.2.2,0,0,1-.11.2.8.8,0,0,1-.37.06,5.12,5.12,0,0,1-1-.07,8.21,8.21,0,0,0-.84,0c-.26,0-.56,0-.91,0a5.76,5.76,0,0,1-1,.07C298.28,77.43,298.12,77.34,298.12,77.17Z"/><path class="cls-1" d="M312,77.37a2.81,2.81,0,0,1-.75-.82,1.75,1.75,0,0,1-.3-.92,1.7,1.7,0,0,1,.39-1.18,3.84,3.84,0,0,1,1.31-.81l2.45-1a1.32,1.32,0,0,0,.55-.34,1.51,1.51,0,0,0,.12-.62l.05-1.54a1.58,1.58,0,0,0-.36-1.09,1.35,1.35,0,0,0-1.06-.44,2.27,2.27,0,0,0-.72.12,1.88,1.88,0,0,0-.6.31c-.16.11-.24.34-.24.7l0,.43c0,.13-.21.3-.62.51a2.2,2.2,0,0,1-1,.33.29.29,0,0,1-.19-.06.19.19,0,0,1-.07-.16,1.7,1.7,0,0,1,.25-.83,3,3,0,0,1,.71-.82,7.17,7.17,0,0,1,1.83-1.23,4.25,4.25,0,0,1,1.74-.48A1.87,1.87,0,0,1,317,68a2.06,2.06,0,0,1,.54,1.53l-.12,5.76a1.16,1.16,0,0,0,.22.81.77.77,0,0,0,.65.32,1.24,1.24,0,0,0,.88-.27.34.34,0,0,1,.2-.12.29.29,0,0,1,.19.07.27.27,0,0,1,.07.2.63.63,0,0,1-.07.25,1,1,0,0,1-.19.27,3.66,3.66,0,0,1-.83.62,1.84,1.84,0,0,1-.83.22,1.94,1.94,0,0,1-1.75-1.24h-.07a6.29,6.29,0,0,1-1.52.94,3.8,3.8,0,0,1-1.48.3A1.46,1.46,0,0,1,312,77.37Zm3.41-1.4a1,1,0,0,0,.22-.36,2.85,2.85,0,0,0,.09-.63l.05-1.17v-.15a.56.56,0,0,0-.05-.27.18.18,0,0,0-.17-.09,1.77,1.77,0,0,0-.48.12,5.26,5.26,0,0,0-1.72.91,1.31,1.31,0,0,0-.53.94,1.23,1.23,0,0,0,.35.94,1.14,1.14,0,0,0,.82.33A1.94,1.94,0,0,0,315.38,76Z"/><path class="cls-1" d="M320.3,77.17a.23.23,0,0,1,.12-.23,3.89,3.89,0,0,1,.43-.16c.61-.14.91-.45.91-.91V70.71a2.7,2.7,0,0,0-.21-1.16,1.05,1.05,0,0,0-.77-.57.27.27,0,0,1-.17-.12.3.3,0,0,1-.07-.19.27.27,0,0,1,.07-.18.36.36,0,0,1,.15-.11,12.11,12.11,0,0,0,2.37-1.17.85.85,0,0,1,.36-.17c.08,0,.12,0,.12.17,0,.43,0,1-.07,1.8,0,0,0,0,0,0a5.45,5.45,0,0,1,1.34-1.17,2.7,2.7,0,0,1,1.42-.46,1.45,1.45,0,0,1,.83.22.65.65,0,0,1,.32.55,1.46,1.46,0,0,1-.3.82.83.83,0,0,1-.64.43,1.59,1.59,0,0,1-.67-.22l-.32-.12a1.38,1.38,0,0,0-.45-.09,1.65,1.65,0,0,0-1.17.45,2.11,2.11,0,0,0-.48,1.56v4.85a.6.6,0,0,0,.31.52,4.24,4.24,0,0,0,1,.39,3.51,3.51,0,0,1,.42.17.23.23,0,0,1,.13.22c0,.17-.16.26-.48.26a7.51,7.51,0,0,1-1.13-.07c-.38,0-.7,0-1,0s-.56,0-.91,0a5.64,5.64,0,0,1-1,.07C320.46,77.43,320.3,77.34,320.3,77.17Z"/><path class="cls-1" d="M336,77.72c-.07-.07-.11-.11-.11-.15L336,77a4.78,4.78,0,0,0,.07-.82V76a3.88,3.88,0,0,1-1.25,1.19,3.47,3.47,0,0,1-1.89.51,4,4,0,0,1-2.33-.69A4.74,4.74,0,0,1,329,75.16a5.34,5.34,0,0,1-.55-2.36,5.51,5.51,0,0,1,.66-2.65,5,5,0,0,1,1.88-2,5.38,5.38,0,0,1,2.86-.75,5,5,0,0,1,.93.09,5.1,5.1,0,0,1,.8.18,1.38,1.38,0,0,0,.31.07q.08,0,.12-.15a1.48,1.48,0,0,0,.05-.43V63.77a2.12,2.12,0,0,0-.29-1.27,1.48,1.48,0,0,0-.91-.48c-.15,0-.22-.13-.22-.31a.28.28,0,0,1,.19-.29,11.89,11.89,0,0,0,1.9-.59l.7-.3a1.11,1.11,0,0,1,.31-.07.15.15,0,0,1,.16.15c0,.09,0,.4-.08.91a22.73,22.73,0,0,0-.08,2.35V74.72a4.21,4.21,0,0,0,.12,1.2c.08.24.2.36.38.36s.62,0,1-.07h.12c.21,0,.32.07.32.21a.48.48,0,0,1-.11.3.31.31,0,0,1-.23.13,11.18,11.18,0,0,0-2.81.82.84.84,0,0,1-.38.14A.29.29,0,0,1,336,77.72Zm-1-1.6a3.57,3.57,0,0,0,1.05-.85l0-4.32a2.43,2.43,0,0,0-.38-1.27,2.71,2.71,0,0,0-1.05-1,3,3,0,0,0-1.53-.4,2.79,2.79,0,0,0-1.32.36,3,3,0,0,0-1.15,1.25,5,5,0,0,0-.48,2.38,4.61,4.61,0,0,0,.63,2.59,3.19,3.19,0,0,0,1.44,1.27,4.09,4.09,0,0,0,1.53.34A2.52,2.52,0,0,0,335,76.12Z"/><path class="cls-1" d="M350.08,76.7a8.35,8.35,0,0,1-3.2-2.87,7.5,7.5,0,0,1-1.21-4.22,7.15,7.15,0,0,1,1.27-4.14,8.89,8.89,0,0,1,3.41-2.94,10,10,0,0,1,4.58-1.08,12.44,12.44,0,0,1,2,.13c.52.09,1.27.25,2.24.49a.87.87,0,0,1,.49.29,1,1,0,0,1,.21.53q.19,1.86.21,2.76a.24.24,0,0,1-.1.25.48.48,0,0,1-.3.11.41.41,0,0,1-.41-.34,7.39,7.39,0,0,0-.59-1.64,2.84,2.84,0,0,0-.9-1,4.69,4.69,0,0,0-1.45-.6,7.19,7.19,0,0,0-1.84-.22,5.89,5.89,0,0,0-3.29,1,6.84,6.84,0,0,0-2.3,2.53,7,7,0,0,0-.84,3.35,9.12,9.12,0,0,0,.84,3.83,7.68,7.68,0,0,0,2.34,3A5.5,5.5,0,0,0,354.69,77a5,5,0,0,0,2.8-.75,6.39,6.39,0,0,0,2-2.25.56.56,0,0,1,.21-.22.54.54,0,0,1,.27-.09.33.33,0,0,1,.24.1.4.4,0,0,1,.09.29,4.69,4.69,0,0,1-.21,1c-.15.5-.29.93-.43,1.28a3,3,0,0,1-.29.44,1.61,1.61,0,0,1-.48.21,8.91,8.91,0,0,1-2.07.52,16.9,16.9,0,0,1-2.47.18A9.22,9.22,0,0,1,350.08,76.7Z"/><path class="cls-1" d="M362.06,77.17a.24.24,0,0,1,.12-.22,2.34,2.34,0,0,1,.43-.17,2,2,0,0,0,.74-.35.76.76,0,0,0,.29-.63v-12c0-1-.35-1.6-1.05-1.72-.15,0-.22-.15-.22-.34a.28.28,0,0,1,.19-.29c1.27-.4,2.15-.71,2.67-.93a.26.26,0,0,1,.14-.05.15.15,0,0,1,.17.17c0,.08,0,.32-.11.73a18.56,18.56,0,0,0-.11,2.53v4.18a2.46,2.46,0,0,0,0,.54,1.09,1.09,0,0,0,.13.34,6.46,6.46,0,0,1,3.65-1.51,2.46,2.46,0,0,1,2,.94,3.56,3.56,0,0,1,.77,2.33v5q0,.76,1,1a1.47,1.47,0,0,1,.42.16.25.25,0,0,1,.13.23c0,.17-.16.26-.48.26a5.76,5.76,0,0,1-1-.07c-.32,0-.61,0-.86,0s-.54,0-.87,0a5.42,5.42,0,0,1-1,.07c-.32,0-.48-.09-.48-.26a.22.22,0,0,1,.1-.21,4,4,0,0,1,.45-.18,1.71,1.71,0,0,0,.68-.38.88.88,0,0,0,.25-.67v-4.9a1.9,1.9,0,0,0-.33-1.07A2.67,2.67,0,0,0,369,69a2.1,2.1,0,0,0-1.05-.3,4.94,4.94,0,0,0-1.09.14,2.53,2.53,0,0,0-.9.39,1.63,1.63,0,0,0-.52.66,3.46,3.46,0,0,0-.13,1.07V75.8a.85.85,0,0,0,.27.63,1.83,1.83,0,0,0,.67.35,1.23,1.23,0,0,1,.39.16.25.25,0,0,1,.14.23.22.22,0,0,1-.11.2.83.83,0,0,1-.37.06,5.17,5.17,0,0,1-1-.07,8.21,8.21,0,0,0-.84,0c-.25,0-.56,0-.91,0a5.71,5.71,0,0,1-1,.07C362.22,77.43,362.06,77.34,362.06,77.17Z"/><path class="cls-1" d="M377.17,77.07a4.56,4.56,0,0,1-1.73-1.73,4.79,4.79,0,0,1-.64-2.47,5.3,5.3,0,0,1,.71-2.59,5.78,5.78,0,0,1,1.92-2.07,4.77,4.77,0,0,1,2.63-.79,4.93,4.93,0,0,1,4.28,2.44,4.6,4.6,0,0,1,.66,2.39,6,6,0,0,1-.62,2.68,4.9,4.9,0,0,1-1.85,2,5.55,5.55,0,0,1-2.95.75A4.7,4.7,0,0,1,377.17,77.07Zm5.38-1.42a6.41,6.41,0,0,0,.48-2.83,5.9,5.9,0,0,0-.43-2.23,4.55,4.55,0,0,0-1.2-1.75,2.56,2.56,0,0,0-1.75-.67,3.14,3.14,0,0,0-1.2.21,2.28,2.28,0,0,0-.91.75,3.15,3.15,0,0,0-.6,1.35,9.22,9.22,0,0,0-.17,1.84,6,6,0,0,0,.43,2.27,4.52,4.52,0,0,0,1.19,1.72,2.77,2.77,0,0,0,4.16-.66Z"/><path class="cls-1" d="M386.56,77.32a.46.46,0,0,1-.12-.25,2.23,2.23,0,0,1,.3-.54c.2-.31.4-.6.59-.85,1.58-2.27,3.11-4.58,4.58-6.91l0-.12c0-.08-.09-.12-.26-.12l-2.38-.08a1.2,1.2,0,0,0-.59.12,1.83,1.83,0,0,0-.46.34,7,7,0,0,0-.7.89l-.36.5a.29.29,0,0,1-.22.07.35.35,0,0,1-.26-.08.21.21,0,0,1-.05-.23,8.32,8.32,0,0,0,.3-1.13,5.28,5.28,0,0,0,.16-1.12.38.38,0,0,1,.13-.3c.09-.09.16-.14.23-.14a1,1,0,0,1,.36.22,2,2,0,0,0,1,.14l.91,0c1.52,0,3,0,4.47-.07a.16.16,0,0,1,.15.11c0,.07.05.13,0,.18-.41.51-.72.91-.91,1.2l-4.68,7.08a.28.28,0,0,0,0,.16.16.16,0,0,0,.08.15.33.33,0,0,0,.19,0h2.83A1.59,1.59,0,0,0,393,76a15.45,15.45,0,0,0,1.32-1.75.24.24,0,0,1,.22-.12.29.29,0,0,1,.21.09.23.23,0,0,1,.1.2,9.32,9.32,0,0,1-.28,1.14c-.18.68-.33,1.2-.44,1.57a.37.37,0,0,1-.39.34l-1,0q-1.83-.09-4-.09l-1.18.07-.74,0C386.71,77.48,386.64,77.43,386.56,77.32Z"/><path class="cls-1" d="M395.47,77.17a.23.23,0,0,1,.13-.24,1.93,1.93,0,0,1,.42-.15,2.23,2.23,0,0,0,.79-.32.69.69,0,0,0,.24-.59V70.66c0-1-.36-1.64-1.08-1.75-.16,0-.24-.12-.24-.31s.07-.27.22-.29a6,6,0,0,0,2.52-1.2.64.64,0,0,1,.33-.17q.15,0,.15.12c0,.18,0,.48-.08.91,0,.2,0,.55-.08,1.07s-.06.94-.06,1.26v5.57a.68.68,0,0,0,.25.58,2.42,2.42,0,0,0,.78.33,1.93,1.93,0,0,1,.42.15.23.23,0,0,1,.13.24c0,.17-.16.26-.48.26a5.64,5.64,0,0,1-1-.07c-.36,0-.67,0-.94,0s-.56,0-.91,0a5.71,5.71,0,0,1-1,.07C395.63,77.43,395.47,77.34,395.47,77.17ZM397,64.63a1.27,1.27,0,1,1,.86.34A1.18,1.18,0,0,1,397,64.63Z"/><path class="cls-1" d="M403.71,77.11a4.38,4.38,0,0,1-1.54-1.68,5.13,5.13,0,0,1-.56-2.39,5.94,5.94,0,0,1,.68-2.82,5.42,5.42,0,0,1,1.84-2,4.51,4.51,0,0,1,2.54-.76,4.59,4.59,0,0,1,2.74.84.62.62,0,0,1,.29.46.94.94,0,0,1-.36.65,1.05,1.05,0,0,1-.67.33.46.46,0,0,1-.24-.08l-.27-.18a8.71,8.71,0,0,0-1.22-.79,2.27,2.27,0,0,0-1-.34,2.21,2.21,0,0,0-1.91,1.1,5.08,5.08,0,0,0-.73,2.86,4.34,4.34,0,0,0,.48,2,3.7,3.7,0,0,0,1.32,1.45,3.4,3.4,0,0,0,1.84.53,2.89,2.89,0,0,0,1.2-.23,3.74,3.74,0,0,0,1.08-.8.35.35,0,0,1,.24-.12.25.25,0,0,1,.2.09.48.48,0,0,1,.07.24,1.45,1.45,0,0,1-.36.75,3.64,3.64,0,0,1-1.47,1.12,4.87,4.87,0,0,1-2,.39A4.06,4.06,0,0,1,403.71,77.11Z"/><path class="cls-1" d="M411,77.17a.22.22,0,0,1,.11-.21l.24-.11.21-.07a2.18,2.18,0,0,0,.75-.35.71.71,0,0,0,.28-.63v-12a2.38,2.38,0,0,0-.24-1.22,1.29,1.29,0,0,0-.84-.53c-.15,0-.22-.13-.22-.31a.26.26,0,0,1,.19-.29,12.89,12.89,0,0,0,1.36-.38c.36-.13.79-.31,1.28-.53a.53.53,0,0,1,.22-.07c.1,0,.14.07.14.21s0,.44-.1,1a16.28,16.28,0,0,0-.11,2.24v7.87c0,.15,0,.22.12.22a1.57,1.57,0,0,0,.86-.48A26.91,26.91,0,0,0,417.79,69a.69.69,0,0,0,.21-.36c0-.15-.21-.27-.62-.36a1.08,1.08,0,0,1-.23-.1.17.17,0,0,1-.06-.14.26.26,0,0,1,.14-.21.87.87,0,0,1,.39-.08h1.17a10.7,10.7,0,0,0,1.35-.17,4.35,4.35,0,0,1,.84-.12q.33,0,.33.24c0,.18-.2.32-.6.43a7,7,0,0,0-1.58.75c-.14.09-.54.41-1.19.94s-1.27,1.07-1.88,1.6a.41.41,0,0,0-.15.24.25.25,0,0,0,.08.17c.54.67,1.18,1.39,1.9,2.16s1.27,1.31,1.62,1.63a4.39,4.39,0,0,0,.88.66,5,5,0,0,0,.92.44l.3.1a2.69,2.69,0,0,1,.32.14.23.23,0,0,1,.1.2c0,.17-.16.26-.48.26l-1.94,0c-1.09,0-1.94,0-2.54,0-.29,0-.44-.07-.44-.22s.14-.29.41-.38a1.53,1.53,0,0,0,.48-.23.41.41,0,0,0,.17-.32.66.66,0,0,0-.17-.34l-2.9-3.29c-.1-.11-.18-.17-.24-.17s-.12.06-.12.17c0,.31,0,.82,0,1.54s0,1.31,0,1.68a.9.9,0,0,0,.21.66,1.69,1.69,0,0,0,.63.32l.23.07a1.33,1.33,0,0,1,.24.12.28.28,0,0,1,.08.2c0,.09-.06.16-.19.2a1.23,1.23,0,0,1-.36.06,3.9,3.9,0,0,1-.89-.07,6.84,6.84,0,0,0-.79,0c-.27,0-.57,0-.89,0a5.12,5.12,0,0,1-1,.07C411.18,77.43,411,77.34,411,77.17Z"/></g></g></svg>